<svg width="24" height="24" viewBox="0 0 24 24" fill="none" xmlns="http://www.w3.org/2000/svg">
<path d="M23 19C19.5714 18.4286 19.5714 18.4286 19 15C18.4286 18.4286 18.4286 18.4286 15 19C18.4286 19.5714 18.4286 19.5714 19 23C19.5714 19.5714 19.5714 19.5714 23 19Z" fill="#F723F7" stroke="#F723F7" stroke-width="1.5" stroke-linecap="round" stroke-linejoin="round"/>
<path fill-rule="evenodd" clip-rule="evenodd" d="M9 0.5C9.55229 0.5 10 0.947715 10 1.5V3H14V1.5C14 0.947715 14.4477 0.5 15 0.5C15.5523 0.5 16 0.947715 16 1.5V3.00008C16.9208 3.00072 17.6802 3.00648 18.3086 3.05782C19.0375 3.11737 19.6777 3.24318 20.27 3.54497C21.2108 4.02433 21.9757 4.78924 22.455 5.73005C22.7568 6.32234 22.8826 6.96253 22.9422 7.69138C23 8.39925 23 9.27339 23 10.3572V12C23 12.5523 22.5523 13 22 13C21.4477 13 21 12.5523 21 12V10.4C21 9.26339 20.9992 8.47108 20.9488 7.85424C20.8994 7.24907 20.8072 6.90138 20.673 6.63803C20.3854 6.07354 19.9265 5.6146 19.362 5.32698C19.0986 5.19279 18.7509 5.10062 18.1458 5.05118C17.604 5.00691 16.9269 5.00092 16 5.00012V6.5C16 7.05228 15.5523 7.5 15 7.5C14.4477 7.5 14 7.05228 14 6.5V5H10V6.5C10 7.05228 9.55229 7.5 9 7.5C8.44772 7.5 8 7.05228 8 6.5V5.00012C7.07314 5.00092 6.39601 5.00691 5.85424 5.05118C5.24907 5.10062 4.90138 5.19279 4.63803 5.32698C4.07354 5.6146 3.6146 6.07354 3.32698 6.63803C3.19279 6.90138 3.10062 7.24907 3.05118 7.85424C3.00078 8.47108 3 9.26339 3 10.4V15.6C3 16.7366 3.00078 17.5289 3.05118 18.1458C3.10062 18.7509 3.19279 19.0986 3.32698 19.362C3.6146 19.9265 4.07354 20.3854 4.63803 20.673C4.90138 20.8072 5.24907 20.8994 5.85424 20.9488C6.47108 20.9992 7.26339 21 8.4 21H12C12.5523 21 13 21.4477 13 22C13 22.5523 12.5523 23 12 23H8.35717C7.27339 23 6.39925 23 5.69138 22.9422C4.96253 22.8826 4.32234 22.7568 3.73005 22.455C2.78924 21.9757 2.02433 21.2108 1.54497 20.27C1.24318 19.6777 1.11737 19.0375 1.05782 18.3086C0.999982 17.6007 0.99999 16.7266 1 15.6428V10.3572C0.99999 9.27341 0.999982 8.39925 1.05782 7.69138C1.11737 6.96253 1.24318 6.32234 1.54497 5.73005C2.02433 4.78924 2.78924 4.02433 3.73005 3.54497C4.32234 3.24318 4.96253 3.11737 5.69138 3.05782C6.31978 3.00648 7.07921 3.00072 8 3.00008V1.5C8 0.947715 8.44772 0.5 9 0.5ZM7 11C7 10.4477 7.44772 10 8 10H16C16.5523 10 17 10.4477 17 11C17 11.5523 16.5523 12 16 12H8C7.44772 12 7 11.5523 7 11Z" fill="#030712"/>
<path d="M23 24C23.5523 24 24 23.5523 24 23C24 22.4477 23.5523 22 23 22C22.4477 22 22 22.4477 22 23C22 23.5523 22.4477 24 23 24Z" fill="#F723F7"/>
</svg>
