<svg width="24" height="24" viewBox="0 0 24 24" fill="none" xmlns="http://www.w3.org/2000/svg">
<path d="M23 5C19.5714 4.42857 19.5714 4.42857 19 1C18.4286 4.42857 18.4286 4.42857 15 5C18.4286 5.57143 18.4286 5.57143 19 9C19.5714 5.57143 19.5714 5.57143 23 5Z" fill="#F723F7" stroke="#F723F7" stroke-width="1.5" stroke-linecap="round" stroke-linejoin="round"/>
<path fill-rule="evenodd" clip-rule="evenodd" d="M12 3C6.53545 3 3 6.82227 3 11.5C3 13.2748 3.72755 14.9675 4.80051 16.4007C5.07967 16.7736 5.09895 17.1999 5.08692 17.4556C5.07365 17.7377 5.00996 18.0277 4.93807 18.2872C4.80602 18.7639 4.59464 19.3123 4.40567 19.8026C4.38925 19.8452 4.37299 19.8874 4.35698 19.929C4.21456 20.2993 4.08984 20.6305 3.99775 20.9156C4.36558 20.7835 4.8002 20.5943 5.28103 20.38C5.33953 20.3539 5.39875 20.3274 5.45853 20.3007C5.97084 20.0718 6.52344 19.8249 7.009 19.6499C7.28154 19.5516 7.56901 19.4625 7.8435 19.4129C8.09091 19.3682 8.46498 19.3283 8.83454 19.4595C9.81742 19.8084 10.8837 20 12 20C17.4646 20 21 16.1777 21 11.5C21 10.9477 21.4477 10.5 22 10.5C22.5523 10.5 23 10.9477 23 11.5C23 17.3157 18.5354 22 12 22C10.6848 22 9.42098 21.7793 8.24847 21.3734C8.23551 21.375 8.2191 21.3774 8.19893 21.3811C8.08196 21.4022 7.91318 21.4499 7.68714 21.5314C7.27642 21.6794 6.79582 21.894 6.26758 22.1298C6.21068 22.1552 6.15322 22.1809 6.09524 22.2067C5.52717 22.4599 4.90027 22.7352 4.35656 22.9046C4.08556 22.989 3.78523 23.0636 3.49242 23.0835C3.22384 23.1017 2.78797 23.087 2.40529 22.8039C1.97565 22.4861 1.86845 22.0217 1.84757 21.7222C1.82645 21.4193 1.87757 21.1131 1.93728 20.8574C2.05785 20.3411 2.28779 19.7376 2.49028 19.2111C2.50308 19.1778 2.5158 19.1447 2.52842 19.112C2.72943 18.5897 2.90605 18.1309 3.01066 17.7533C3.04926 17.6139 3.07064 17.5107 3.08112 17.4387C1.88902 15.7942 1 13.7508 1 11.5C1 5.68432 5.46455 1 12 1C12.5523 1 13 1.44772 13 2C13 2.55228 12.5523 3 12 3ZM3.08898 17.3332C3.08898 17.3332 3.08967 17.3373 3.08957 17.3469C3.08869 17.3383 3.08898 17.3332 3.08898 17.3332ZM3.32851 21.0885C3.32851 21.0885 3.33318 21.0882 3.34125 21.0888C3.33233 21.0891 3.32851 21.0885 3.32851 21.0885Z" fill="#030712"/>
<rect x="7.5" y="9" width="9" height="1.5" rx="0.75" fill="#030712"/>
<rect x="7.5" y="12" width="9" height="1.5" rx="0.75" fill="#030712"/>
</svg>
