<svg width="24" height="24" viewBox="0 0 24 24" fill="none" xmlns="http://www.w3.org/2000/svg">
<path d="M23 4C20.4286 3.57143 20.4286 3.57143 20 1C19.5714 3.57143 19.5714 3.57143 17 4C19.5714 4.42857 19.5714 4.42857 20 7C20.4286 4.42857 20.4286 4.42857 23 4Z" fill="#F723F7" stroke="#F723F7" stroke-width="1.5" stroke-linecap="round" stroke-linejoin="round"/>
<path fill-rule="evenodd" clip-rule="evenodd" d="M8.85719 1.5L13 1.5C13.5523 1.5 14 1.94772 14 2.5C14 3.05229 13.5523 3.5 13 3.5H8.9C7.76339 3.5 6.97108 3.50078 6.35424 3.55118C5.74907 3.60062 5.40138 3.69279 5.13803 3.82698C4.57354 4.1146 4.1146 4.57354 3.82698 5.13803C3.69279 5.40138 3.60062 5.74907 3.55118 6.35424C3.50078 6.97108 3.5 7.76339 3.5 8.9V15.1C3.5 16.2366 3.50078 17.0289 3.55118 17.6458C3.60062 18.2509 3.69279 18.5986 3.82698 18.862C4.10163 19.401 4.53248 19.8438 5.06228 20.1331C5.20943 19.1177 5.61104 18.1836 6.20007 17.3994C7.2029 16.0643 8.7533 15.1592 10.519 15.019C10.764 11.9302 13.3482 9.5 16.5 9.5C19.8392 9.5 22.5 12.3122 22.5 15.6V15.6337C22.5 16.4901 22.5 17.1809 22.4635 17.7438C22.426 18.3224 22.3469 18.8347 22.1561 19.3224C21.6479 20.6207 20.6207 21.6479 19.3223 22.1561C18.8347 22.3469 18.3224 22.426 17.7438 22.4635C17.1809 22.5 16.4901 22.5 15.6337 22.5H8.85717C7.77339 22.5 6.89925 22.5 6.19138 22.4422C5.46253 22.3826 4.82234 22.2568 4.23005 21.955C3.28924 21.4757 2.52433 20.7108 2.04497 19.77C1.74318 19.1777 1.61737 18.5375 1.55782 17.8086C1.49998 17.1007 1.49999 16.2266 1.5 15.1428V8.85719C1.49999 7.77341 1.49998 6.89926 1.55782 6.19138C1.61737 5.46253 1.74318 4.82234 2.04497 4.23005C2.52433 3.28924 3.28924 2.52433 4.23005 2.04497C4.82234 1.74318 5.46253 1.61737 6.19138 1.55782C6.89926 1.49998 7.77341 1.49999 8.85719 1.5ZM12.5117 15.1923C13.2783 15.3914 13.9859 15.7383 14.6012 16.2005C15.0427 16.5323 15.1317 17.1591 14.8 17.6007C14.4682 18.0422 13.8414 18.1312 13.3998 17.7995C12.7313 17.2972 11.9018 17 11 17C9.69199 17 8.53066 17.6268 7.7992 18.6006C7.39446 19.1394 7.12291 19.7828 7.03283 20.4844C7.53514 20.4997 8.14076 20.5 8.9 20.5H15.6C16.498 20.5 17.1238 20.4995 17.6143 20.4677C18.0965 20.4364 18.378 20.3779 18.5934 20.2936C19.3724 19.9887 19.9887 19.3724 20.2936 18.5934C20.3779 18.378 20.4364 18.0965 20.4677 17.6143C20.4995 17.1238 20.5 16.498 20.5 15.6C20.5 13.365 18.6836 11.5 16.5 11.5C14.3944 11.5 12.6688 13.1269 12.5117 15.1923Z" fill="#030712"/>
<path d="M10 8.5C10 9.32843 9.32843 10 8.5 10C7.67157 10 7 9.32843 7 8.5C7 7.67157 7.67157 7 8.5 7C9.32843 7 10 7.67157 10 8.5Z" fill="#030712"/>
</svg>
