<svg width="24" height="24" viewBox="0 0 24 24" fill="none" xmlns="http://www.w3.org/2000/svg">
<g clip-path="url(#clip0_1226_12941)">
<path fill-rule="evenodd" clip-rule="evenodd" d="M9 0C9.55229 0 10 0.447715 10 1V2.5C10 3.05228 9.55229 3.5 9 3.5C8.44772 3.5 8 3.05228 8 2.5V1C8 0.447715 8.44772 0 9 0ZM1.29289 1.29289C1.68342 0.902369 2.31658 0.902369 2.70711 1.29289L4.76777 3.35355C5.15829 3.74408 5.15829 4.37724 4.76777 4.76777C4.37724 5.15829 3.74408 5.15829 3.35355 4.76777L1.29289 2.70711C0.902369 2.31658 0.902369 1.68342 1.29289 1.29289ZM0 9C0 8.44772 0.447715 8 1 8H2.5C3.05228 8 3.5 8.44772 3.5 9C3.5 9.55229 3.05228 10 2.5 10H1C0.447715 10 0 9.55229 0 9Z" fill="#030712"/>
<path fill-rule="evenodd" clip-rule="evenodd" d="M5.84118 6.95532C6.04446 6.44713 6.44713 6.04446 6.95532 5.84118C7.34335 5.68596 7.72833 5.70788 8.02665 5.74858C8.31573 5.78802 8.66418 5.86846 9.04333 5.95599L20.378 8.57168C21.0472 8.7261 21.6115 8.85631 22.033 8.99142C22.4071 9.11137 22.9564 9.3138 23.2787 9.78903C23.6599 10.351 23.7299 11.068 23.4646 11.693C23.2402 12.2216 22.7405 12.5265 22.3966 12.7165C22.0092 12.9306 21.4808 13.1675 20.854 13.4484L20.7636 13.4889C20.2597 13.7148 19.668 13.4894 19.4421 12.9855C19.2161 12.4815 19.4416 11.8898 19.9455 11.6639L19.9938 11.6422C20.6739 11.3374 21.1243 11.1345 21.4292 10.966C21.4568 10.9508 21.4818 10.9366 21.5045 10.9233C21.4797 10.9147 21.4524 10.9056 21.4224 10.8959C21.0906 10.7896 20.6095 10.6777 19.8833 10.5101L8.63354 7.91399C8.20099 7.81417 7.94342 7.75575 7.7563 7.73022C7.74563 7.72877 7.73567 7.72751 7.72639 7.7264C7.7275 7.73568 7.72877 7.74563 7.73022 7.7563C7.75575 7.94342 7.81417 8.20099 7.91399 8.63354L10.5101 19.8833C10.6777 20.6095 10.7896 21.0906 10.8959 21.4224C10.9056 21.4524 10.9147 21.4797 10.9233 21.5045C10.9366 21.4818 10.9508 21.4568 10.966 21.4293C11.1345 21.1243 11.3374 20.6739 11.6422 19.9938L11.6639 19.9455C11.8898 19.4416 12.4815 19.2161 12.9855 19.4421C13.4894 19.668 13.7148 20.2597 13.4889 20.7636L13.4484 20.854C13.1674 21.4808 12.9306 22.0092 12.7165 22.3966C12.5265 22.7405 12.2216 23.2402 11.693 23.4646C11.068 23.7299 10.351 23.6599 9.78903 23.2787C9.3138 22.9564 9.11137 22.4071 8.99142 22.033C8.85631 21.6115 8.7261 21.0472 8.57167 20.3779L5.95599 9.04331C5.86846 8.66417 5.78802 8.31573 5.74858 8.02665C5.70788 7.72833 5.68596 7.34335 5.84118 6.95532ZM11.0125 21.7166L11.014 21.7189L11.0125 21.7166ZM21.7189 11.014L21.7165 11.0125L21.7189 11.014Z" fill="#030712"/>
<path d="M19 16C16.4286 15.5714 16.4286 15.5714 16 13C15.5714 15.5714 15.5714 15.5714 13 16C15.5714 16.4286 15.5714 16.4286 16 19C16.4286 16.4286 16.4286 16.4286 19 16Z" fill="#F723F7" stroke="#F723F7" stroke-width="1.5" stroke-linecap="round" stroke-linejoin="round"/>
<path d="M22 21C21.1429 20.8571 21.1429 20.8571 21 20C20.8571 20.8571 20.8571 20.8571 20 21C20.8571 21.1429 20.8571 21.1429 21 22C21.1429 21.1429 21.1429 21.1429 22 21Z" fill="#F723F7" stroke="#F723F7" stroke-width="1.5" stroke-linecap="round" stroke-linejoin="round"/>
</g>
<defs>
<clipPath id="clip0_1226_12941">
<rect width="24" height="24" fill="white"/>
</clipPath>
</defs>
</svg>
