<svg xmlns="http://www.w3.org/2000/svg" version="1.1" xmlns:xlink="http://www.w3.org/1999/xlink" xmlns:svgjs="http://svgjs.dev/svgjs" width="1000" height="1000"><g clip-path="url(#SvgjsClipPath1114)"><rect width="1000" height="1000" fill="#ffffff"></rect><g transform="matrix(2.140672782874618,0,0,2.140672782874618,149.99999999999994,285.9327217125382)"><svg xmlns="http://www.w3.org/2000/svg" version="1.1" xmlns:xlink="http://www.w3.org/1999/xlink" xmlns:svgjs="http://svgjs.dev/svgjs" width="327" height="200"><svg width="327" height="200" viewBox="0 0 327 200" fill="none" xmlns="http://www.w3.org/2000/svg">
<path d="M323.92 9.33808C320.735 3.40667 314.889 0 307.879 0H190.884C176.284 0 162.023 7.83127 153.672 20.4349L133.147 51.4173C130.405 55.5597 133.374 61.088 138.337 61.088H228.599C235.11 61.088 240.789 64.4291 243.798 70.0279C243.964 70.3354 244.115 70.6478 244.261 70.9653L262.222 106.09C264.056 109.678 269.075 109.965 271.308 106.614L322.509 29.7931C326.797 23.3225 327.326 15.6777 323.92 9.33808Z" fill="#2323C9"></path>
<path d="M255.278 123.779C255.913 123.37 256.553 122.962 257.178 122.524C258.886 121.329 259.45 119.062 258.503 117.207L246.67 94.066C245.199 91.1835 241.162 90.9567 239.378 93.6578L219.321 123.99C217.462 126.802 219.488 130.289 222.849 130.552C229.34 131.055 243.561 131.247 255.278 123.779Z" fill="#2EC4ED"></path>
<path d="M235.685 84.1485C237.826 80.9182 238.104 77.1185 236.421 73.989C234.873 71.1115 232.026 69.4586 228.599 69.4586H94.0565C79.4573 69.4586 65.1957 77.2898 56.8404 89.8985L3.63405 170.202C-0.654504 176.672 -1.17861 184.322 2.22805 190.667C5.41297 196.598 11.2537 200 18.2585 200H135.249C149.848 200 164.11 192.169 172.465 179.56L235.685 84.1485Z" fill="#E027E0"></path>
</svg></svg></g></g><defs><clipPath id="SvgjsClipPath1114"><rect width="1000" height="1000" x="0" y="0" rx="250" ry="250"></rect></clipPath></defs></svg>