<svg width="94" height="24" viewBox="0 0 94 24" fill="none" xmlns="http://www.w3.org/2000/svg">
    <path d="M38.7792 1.12057C38.3979 0.408801 37.698 0 36.8588 0H22.8523C21.1045 0 19.3971 0.939753 18.3974 2.45219L15.9401 6.17008C15.6119 6.66717 15.9673 7.33056 16.5616 7.33056H27.3675C28.147 7.33056 28.8269 7.7315 29.1871 8.40336C29.207 8.44025 29.2251 8.47774 29.2426 8.51584L31.3928 12.7308C31.6124 13.1614 32.2133 13.1959 32.4806 12.7937L38.6102 3.57518C39.1237 2.7987 39.187 1.88132 38.7792 1.12057Z" fill="#2323C9"/>
    <path d="M30.5614 14.8538C30.6375 14.8048 30.7141 14.7558 30.7889 14.7032C30.9934 14.5599 31.061 14.2878 30.9476 14.0652L29.531 11.2883C29.3548 10.9424 28.8716 10.9152 28.658 11.2393L26.2568 14.8792C26.0342 15.2166 26.2767 15.6351 26.6791 15.6665C27.4562 15.727 29.1587 15.75 30.5614 14.8538Z" fill="#2EC4ED"/>
    <path d="M28.2158 10.0987C28.4722 9.7111 28.5054 9.25513 28.3039 8.87959C28.1187 8.53429 27.7778 8.33594 27.3676 8.33594H11.2603C9.51251 8.33594 7.80514 9.27569 6.80484 10.7887L0.435063 20.4251C-0.0783563 21.2016 -0.141101 22.1196 0.266738 22.881C0.648032 23.5927 1.34727 24.0009 2.18588 24.0009H16.1918C17.9396 24.0009 19.647 23.0612 20.6473 21.5481L28.2158 10.0987Z" fill="#E027E0"/>
    <path d="M47.928 2.10352L47.8767 10.0158L54.7937 2.10352H59.4989L51.4254 10.9955L59.7047 21.5366H54.845L48.3913 12.8254L47.8773 13.083L47.9286 21.5366H44.0457V2.10352H47.928Z" fill="#030712"/>
    <path d="M60.8281 21.5366V2.10352H64.5566V21.5366H60.8281Z" fill="#030712"/>
    <path d="M72.3544 8.59766C73.3318 8.59766 74.2096 8.75247 74.9897 9.06148C75.7698 9.3705 76.4334 9.81801 76.9825 10.4016C77.5309 10.9857 77.955 11.6945 78.2555 12.5278C78.5553 13.3611 78.7055 14.3021 78.7055 15.3501V16.0201H69.7059C69.7741 16.9478 70.0444 17.6916 70.5155 18.2498C70.9867 18.8086 71.66 19.0873 72.5342 19.0873C73.1339 19.0873 73.6528 18.9416 74.0896 18.6489C74.527 18.3568 74.9161 17.9015 75.2594 17.2828L78.5251 18.3653C77.9592 19.5506 77.1454 20.4359 76.0823 21.0201C75.0193 21.6042 73.8199 21.8963 72.4823 21.8963C71.505 21.8963 70.6181 21.7415 69.8211 21.4325C69.0242 21.1235 68.334 20.6808 67.7512 20.1051C67.1684 19.5294 66.7183 18.834 66.4009 18.0176C66.0836 17.2018 65.9255 16.2868 65.9255 15.2727C65.9255 14.2592 66.0836 13.34 66.4009 12.5151C66.7177 11.6903 67.1593 10.9906 67.7252 10.4149C68.2911 9.83917 68.968 9.39288 69.7566 9.07479C70.5457 8.7567 71.4115 8.59766 72.3544 8.59766ZM69.8603 13.5722H74.9258C74.8395 12.8852 74.574 12.3524 74.1288 11.9745C73.6829 11.5965 73.1086 11.4072 72.4057 11.4072C71.7198 11.4072 71.1587 11.605 70.7213 11.9999C70.2845 12.3954 69.9973 12.9191 69.8603 13.5722Z" fill="#030712"/>
    <path d="M79.6821 15.1699C79.6821 14.2253 79.8535 13.3527 80.1962 12.5538C80.5388 11.755 81.0191 11.0631 81.6363 10.479C82.2535 9.89481 82.9865 9.43521 83.8347 9.10019C84.683 8.76517 85.6127 8.59766 86.6245 8.59766C87.6356 8.59766 88.5659 8.76094 89.4142 9.08749C90.2624 9.41405 90.9955 9.86941 91.6126 10.4536C92.2298 11.0377 92.7095 11.738 93.0528 12.5538C93.3954 13.3702 93.5668 14.2676 93.5668 15.2473C93.5668 16.227 93.3954 17.125 93.0528 17.9408C92.7095 18.7572 92.2298 19.4574 91.6126 20.041C90.9955 20.6252 90.2582 21.0805 89.4015 21.4071C88.5442 21.733 87.6018 21.8969 86.5732 21.8969C85.5789 21.8969 84.6577 21.7336 83.8088 21.4071C82.9605 21.0811 82.2317 20.6252 81.623 20.041C81.0142 19.4568 80.5388 18.7481 80.1962 17.9148C79.8529 17.0814 79.6821 16.1665 79.6821 15.1699ZM83.4106 15.2213C83.4106 16.2868 83.702 17.1328 84.2848 17.7599C84.8676 18.3877 85.6477 18.7009 86.6245 18.7009C87.6018 18.7009 88.3813 18.3877 88.9641 17.7599C89.5469 17.1328 89.8383 16.2953 89.8383 15.2473C89.8383 14.2162 89.5469 13.3829 88.9641 12.7473C88.3813 12.1118 87.6012 11.7937 86.6245 11.7937C85.6471 11.7937 84.867 12.1118 84.2848 12.7473C83.7014 13.3829 83.4106 14.2078 83.4106 15.2213Z" fill="#030712"/>
</svg>
