<svg width="489" height="144" viewBox="0 0 489 144" fill="none" xmlns="http://www.w3.org/2000/svg">
<g clip-path="url(#clip0_1950_5565)">
<path d="M195.214 43V40.886H190.566V39.724L194.948 33.2H196.698V39.542H197.972V40.886H196.698V43H195.214ZM192.218 39.542H195.298V34.866L192.218 39.542ZM202.516 43.168C201.835 43.168 201.242 43.042 200.738 42.79C200.234 42.538 199.837 42.1927 199.548 41.754C199.268 41.3153 199.105 40.8207 199.058 40.27H200.57C200.663 40.7273 200.878 41.096 201.214 41.376C201.559 41.656 201.998 41.796 202.53 41.796C203.155 41.796 203.65 41.6 204.014 41.208C204.378 40.8067 204.56 40.2933 204.56 39.668C204.56 39.0053 204.373 38.492 204 38.128C203.627 37.764 203.151 37.582 202.572 37.582C202.105 37.582 201.709 37.6893 201.382 37.904C201.055 38.1187 200.799 38.3893 200.612 38.716H199.184L200.024 33.2H205.358V34.572H201.172L200.696 37.078H200.794C200.99 36.854 201.251 36.6673 201.578 36.518C201.914 36.3687 202.311 36.294 202.768 36.294C203.44 36.294 204.014 36.4387 204.49 36.728C204.975 37.0173 205.349 37.4187 205.61 37.932C205.871 38.436 206.002 39.01 206.002 39.654C206.002 40.3073 205.857 40.9 205.568 41.432C205.288 41.964 204.887 42.3887 204.364 42.706C203.841 43.014 203.225 43.168 202.516 43.168ZM209.049 37.372C208.442 37.372 207.943 37.176 207.551 36.784C207.159 36.392 206.963 35.8647 206.963 35.202C206.963 34.5393 207.159 34.012 207.551 33.62C207.943 33.228 208.442 33.032 209.049 33.032C209.655 33.032 210.155 33.228 210.547 33.62C210.939 34.012 211.135 34.5393 211.135 35.202C211.135 35.8647 210.939 36.392 210.547 36.784C210.155 37.176 209.655 37.372 209.049 37.372ZM209.049 36.392C209.319 36.392 209.557 36.2893 209.763 36.084C209.968 35.8693 210.071 35.5753 210.071 35.202C210.071 34.8193 209.968 34.5253 209.763 34.32C209.557 34.1147 209.319 34.012 209.049 34.012C208.778 34.012 208.54 34.1147 208.335 34.32C208.129 34.5253 208.027 34.8193 208.027 35.202C208.027 35.5753 208.129 35.8693 208.335 36.084C208.54 36.2893 208.778 36.392 209.049 36.392ZM207.719 42.174L206.949 41.418L214.131 34.026L214.901 34.782L207.719 42.174ZM212.801 43.168C212.194 43.168 211.695 42.972 211.303 42.58C210.911 42.188 210.715 41.6607 210.715 40.998C210.715 40.3353 210.911 39.808 211.303 39.416C211.695 39.024 212.194 38.828 212.801 38.828C213.407 38.828 213.907 39.024 214.299 39.416C214.691 39.808 214.887 40.3353 214.887 40.998C214.887 41.6607 214.691 42.188 214.299 42.58C213.907 42.972 213.407 43.168 212.801 43.168ZM212.801 42.188C213.071 42.188 213.309 42.0853 213.515 41.88C213.72 41.6653 213.823 41.3713 213.823 40.998C213.823 40.6153 213.72 40.3213 213.515 40.116C213.309 39.9107 213.071 39.808 212.801 39.808C212.53 39.808 212.292 39.9107 212.087 40.116C211.881 40.3213 211.779 40.6153 211.779 40.998C211.779 41.3713 211.881 41.6653 212.087 41.88C212.292 42.0853 212.53 42.188 212.801 42.188ZM227.588 43.168C226.86 43.168 226.22 42.9627 225.67 42.552C225.119 42.132 224.69 41.544 224.382 40.788C224.074 40.032 223.92 39.136 223.92 38.1C223.92 37.0827 224.074 36.196 224.382 35.44C224.69 34.684 225.128 34.096 225.698 33.676C226.276 33.2467 226.967 33.032 227.77 33.032C228.74 33.032 229.52 33.298 230.108 33.83C230.705 34.362 231.069 35.1133 231.2 36.084H229.59C229.496 35.58 229.291 35.1787 228.974 34.88C228.666 34.5813 228.264 34.432 227.77 34.432C227.014 34.432 226.435 34.7587 226.034 35.412C225.632 36.0653 225.432 36.9613 225.432 38.1C225.432 39.2853 225.642 40.1953 226.062 40.83C226.491 41.4553 227.046 41.768 227.728 41.768C228.185 41.768 228.563 41.6327 228.862 41.362C229.16 41.0913 229.389 40.746 229.548 40.326C229.706 39.8967 229.804 39.444 229.842 38.968H227.784V37.736H231.34V43H229.968L229.87 41.684H229.786C229.599 42.1133 229.338 42.468 229.002 42.748C228.666 43.028 228.194 43.168 227.588 43.168ZM233.028 43V33.2H239.286V34.53H234.512V37.386H238.866V38.702H234.512V41.67H239.286V43H233.028ZM241.017 43V33.2H242.473L246.575 40.382V33.2H247.989V43H246.533L242.431 35.818V43H241.017ZM249.817 43V33.2H256.075V34.53H251.301V37.386H255.655V38.702H251.301V41.67H256.075V43H249.817ZM258.142 43V33.2H261.348C262.113 33.2 262.743 33.3307 263.238 33.592C263.742 33.8533 264.115 34.208 264.358 34.656C264.61 35.0947 264.736 35.594 264.736 36.154C264.736 36.7887 264.572 37.3533 264.246 37.848C263.928 38.3333 263.438 38.688 262.776 38.912L264.834 43H263.112L261.236 39.122H259.626V43H258.142ZM259.626 37.778H261.264C261.936 37.778 262.426 37.6287 262.734 37.33C263.051 37.0313 263.21 36.6393 263.21 36.154C263.21 35.6593 263.056 35.2673 262.748 34.978C262.44 34.6793 261.94 34.53 261.25 34.53H259.626V37.778ZM265.878 43L268.804 33.2H270.568L273.494 43H271.884L271.226 40.648H268.146L267.488 43H265.878ZM269.644 35.3L268.482 39.458H270.89L269.728 35.3H269.644ZM277.339 43V34.53H274.707V33.2H281.455V34.53H278.823V43H277.339ZM283.395 43V33.2H289.653V34.53H284.879V37.386H289.233V38.702H284.879V41.67H289.653V43H283.395ZM291.468 43V33.2H293.82C295.397 33.2 296.569 33.6387 297.334 34.516C298.099 35.384 298.482 36.5787 298.482 38.1C298.482 39.6213 298.099 40.8207 297.334 41.698C296.569 42.566 295.397 43 293.82 43H291.468ZM292.952 41.628H293.764C294.903 41.628 295.724 41.3107 296.228 40.676C296.732 40.032 296.984 39.1733 296.984 38.1C296.984 37.0267 296.732 36.1727 296.228 35.538C295.724 34.894 294.903 34.572 293.764 34.572H292.952V41.628Z" fill="black"/>
<path d="M307 25.5C301.857 24.6429 301.857 24.6429 301 19.5C300.143 24.6429 300.143 24.6429 295 25.5C300.143 26.3571 300.143 26.3571 301 31.5C301.857 26.3571 301.857 26.3571 307 25.5Z" fill="#F723F7" stroke="#F723F7" stroke-width="1.5" stroke-linecap="round" stroke-linejoin="round"/>
<path d="M309 31.5C307.286 31.2143 307.286 31.2143 307 29.5C306.714 31.2143 306.714 31.2143 305 31.5C306.714 31.7857 306.714 31.7857 307 33.5C307.286 31.7857 307.286 31.7857 309 31.5Z" fill="#F723F7" stroke="#F723F7" stroke-linecap="round" stroke-linejoin="round"/>
<g filter="url(#filter0_d_1950_5565)">
<rect x="10" y="67" width="25" height="50" rx="6" fill="#F723F7"/>
<rect x="10.5" y="67.5" width="24" height="49" rx="5.5" stroke="#D300C5"/>
</g>
<g filter="url(#filter1_d_1950_5565)">
<rect x="44" y="67" width="25" height="50" rx="6" fill="#F723F7"/>
<rect x="44.5" y="67.5" width="24" height="49" rx="5.5" stroke="#D300C5"/>
</g>
<g filter="url(#filter2_d_1950_5565)">
<rect x="78" y="67" width="25" height="50" rx="6" fill="#F723F7"/>
<rect x="78.5" y="67.5" width="24" height="49" rx="5.5" stroke="#D300C5"/>
</g>
<g filter="url(#filter3_d_1950_5565)">
<rect x="112" y="67" width="25" height="50" rx="6" fill="#F723F7"/>
<rect x="112.5" y="67.5" width="24" height="49" rx="5.5" stroke="#D300C5"/>
</g>
<g filter="url(#filter4_d_1950_5565)">
<rect x="146" y="67" width="25" height="50" rx="6" fill="#F723F7"/>
<rect x="146.5" y="67.5" width="24" height="49" rx="5.5" stroke="#D300C5"/>
</g>
<g filter="url(#filter5_d_1950_5565)">
<rect x="180" y="67" width="25" height="50" rx="6" fill="#F58CF7"/>
<rect x="180.5" y="67.5" width="24" height="49" rx="5.5" stroke="#E37ADD"/>
</g>
<g filter="url(#filter6_d_1950_5565)">
<rect x="214" y="67" width="25" height="50" rx="6" fill="#F3F4F6"/>
<rect x="214.5" y="67.5" width="24" height="49" rx="5.5" stroke="#E5E7EB"/>
</g>
<g filter="url(#filter7_d_1950_5565)">
<rect x="248" y="67" width="25" height="50" rx="6" fill="#F3F4F6"/>
<rect x="248.5" y="67.5" width="24" height="49" rx="5.5" stroke="#E5E7EB"/>
</g>
<g filter="url(#filter8_d_1950_5565)">
<rect x="282" y="67" width="25" height="50" rx="6" fill="#F3F4F6"/>
<rect x="282.5" y="67.5" width="24" height="49" rx="5.5" stroke="#E5E7EB"/>
</g>
<g filter="url(#filter9_d_1950_5565)">
<rect x="316" y="67" width="25" height="50" rx="6" fill="#F3F4F6"/>
<rect x="316.5" y="67.5" width="24" height="49" rx="5.5" stroke="#E5E7EB"/>
</g>
<g filter="url(#filter10_d_1950_5565)">
<rect x="350" y="67" width="25" height="50" rx="6" fill="#F3F4F6"/>
<rect x="350.5" y="67.5" width="24" height="49" rx="5.5" stroke="#E5E7EB"/>
</g>
<g filter="url(#filter11_d_1950_5565)">
<rect x="384" y="67" width="25" height="50" rx="6" fill="#F3F4F6"/>
<rect x="384.5" y="67.5" width="24" height="49" rx="5.5" stroke="#E5E7EB"/>
</g>
<g filter="url(#filter12_d_1950_5565)">
<rect x="418" y="67" width="25" height="50" rx="6" fill="#F3F4F6"/>
<rect x="418.5" y="67.5" width="24" height="49" rx="5.5" stroke="#E5E7EB"/>
</g>
<g filter="url(#filter13_d_1950_5565)">
<rect x="452" y="67" width="25" height="50" rx="6" fill="#F3F4F6"/>
<rect x="452.5" y="67.5" width="24" height="49" rx="5.5" stroke="#E5E7EB"/>
</g>
</g>
<rect width="489" height="141" fill="url(#paint0_linear_1950_5565)"/>
<defs>
<filter id="filter0_d_1950_5565" x="0" y="57" width="45" height="70" filterUnits="userSpaceOnUse" color-interpolation-filters="sRGB">
<feFlood flood-opacity="0" result="BackgroundImageFix"/>
<feColorMatrix in="SourceAlpha" type="matrix" values="0 0 0 0 0 0 0 0 0 0 0 0 0 0 0 0 0 0 127 0" result="hardAlpha"/>
<feOffset/>
<feGaussianBlur stdDeviation="5"/>
<feComposite in2="hardAlpha" operator="out"/>
<feColorMatrix type="matrix" values="0 0 0 0 0.968627 0 0 0 0 0.137255 0 0 0 0 0.968627 0 0 0 0.8 0"/>
<feBlend mode="normal" in2="BackgroundImageFix" result="effect1_dropShadow_1950_5565"/>
<feBlend mode="normal" in="SourceGraphic" in2="effect1_dropShadow_1950_5565" result="shape"/>
</filter>
<filter id="filter1_d_1950_5565" x="34" y="57" width="45" height="70" filterUnits="userSpaceOnUse" color-interpolation-filters="sRGB">
<feFlood flood-opacity="0" result="BackgroundImageFix"/>
<feColorMatrix in="SourceAlpha" type="matrix" values="0 0 0 0 0 0 0 0 0 0 0 0 0 0 0 0 0 0 127 0" result="hardAlpha"/>
<feOffset/>
<feGaussianBlur stdDeviation="5"/>
<feComposite in2="hardAlpha" operator="out"/>
<feColorMatrix type="matrix" values="0 0 0 0 0.968627 0 0 0 0 0.137255 0 0 0 0 0.968627 0 0 0 0.8 0"/>
<feBlend mode="normal" in2="BackgroundImageFix" result="effect1_dropShadow_1950_5565"/>
<feBlend mode="normal" in="SourceGraphic" in2="effect1_dropShadow_1950_5565" result="shape"/>
</filter>
<filter id="filter2_d_1950_5565" x="68" y="57" width="45" height="70" filterUnits="userSpaceOnUse" color-interpolation-filters="sRGB">
<feFlood flood-opacity="0" result="BackgroundImageFix"/>
<feColorMatrix in="SourceAlpha" type="matrix" values="0 0 0 0 0 0 0 0 0 0 0 0 0 0 0 0 0 0 127 0" result="hardAlpha"/>
<feOffset/>
<feGaussianBlur stdDeviation="5"/>
<feComposite in2="hardAlpha" operator="out"/>
<feColorMatrix type="matrix" values="0 0 0 0 0.968627 0 0 0 0 0.137255 0 0 0 0 0.968627 0 0 0 0.8 0"/>
<feBlend mode="normal" in2="BackgroundImageFix" result="effect1_dropShadow_1950_5565"/>
<feBlend mode="normal" in="SourceGraphic" in2="effect1_dropShadow_1950_5565" result="shape"/>
</filter>
<filter id="filter3_d_1950_5565" x="102" y="57" width="45" height="70" filterUnits="userSpaceOnUse" color-interpolation-filters="sRGB">
<feFlood flood-opacity="0" result="BackgroundImageFix"/>
<feColorMatrix in="SourceAlpha" type="matrix" values="0 0 0 0 0 0 0 0 0 0 0 0 0 0 0 0 0 0 127 0" result="hardAlpha"/>
<feOffset/>
<feGaussianBlur stdDeviation="5"/>
<feComposite in2="hardAlpha" operator="out"/>
<feColorMatrix type="matrix" values="0 0 0 0 0.968627 0 0 0 0 0.137255 0 0 0 0 0.968627 0 0 0 0.8 0"/>
<feBlend mode="normal" in2="BackgroundImageFix" result="effect1_dropShadow_1950_5565"/>
<feBlend mode="normal" in="SourceGraphic" in2="effect1_dropShadow_1950_5565" result="shape"/>
</filter>
<filter id="filter4_d_1950_5565" x="136" y="57" width="45" height="70" filterUnits="userSpaceOnUse" color-interpolation-filters="sRGB">
<feFlood flood-opacity="0" result="BackgroundImageFix"/>
<feColorMatrix in="SourceAlpha" type="matrix" values="0 0 0 0 0 0 0 0 0 0 0 0 0 0 0 0 0 0 127 0" result="hardAlpha"/>
<feOffset/>
<feGaussianBlur stdDeviation="5"/>
<feComposite in2="hardAlpha" operator="out"/>
<feColorMatrix type="matrix" values="0 0 0 0 0.968627 0 0 0 0 0.137255 0 0 0 0 0.968627 0 0 0 0.8 0"/>
<feBlend mode="normal" in2="BackgroundImageFix" result="effect1_dropShadow_1950_5565"/>
<feBlend mode="normal" in="SourceGraphic" in2="effect1_dropShadow_1950_5565" result="shape"/>
</filter>
<filter id="filter5_d_1950_5565" x="170" y="57" width="45" height="70" filterUnits="userSpaceOnUse" color-interpolation-filters="sRGB">
<feFlood flood-opacity="0" result="BackgroundImageFix"/>
<feColorMatrix in="SourceAlpha" type="matrix" values="0 0 0 0 0 0 0 0 0 0 0 0 0 0 0 0 0 0 127 0" result="hardAlpha"/>
<feOffset/>
<feGaussianBlur stdDeviation="5"/>
<feComposite in2="hardAlpha" operator="out"/>
<feColorMatrix type="matrix" values="0 0 0 0 0.960784 0 0 0 0 0.54902 0 0 0 0 0.968627 0 0 0 0.8 0"/>
<feBlend mode="normal" in2="BackgroundImageFix" result="effect1_dropShadow_1950_5565"/>
<feBlend mode="normal" in="SourceGraphic" in2="effect1_dropShadow_1950_5565" result="shape"/>
</filter>
<filter id="filter6_d_1950_5565" x="204" y="57" width="45" height="70" filterUnits="userSpaceOnUse" color-interpolation-filters="sRGB">
<feFlood flood-opacity="0" result="BackgroundImageFix"/>
<feColorMatrix in="SourceAlpha" type="matrix" values="0 0 0 0 0 0 0 0 0 0 0 0 0 0 0 0 0 0 127 0" result="hardAlpha"/>
<feOffset/>
<feGaussianBlur stdDeviation="5"/>
<feComposite in2="hardAlpha" operator="out"/>
<feColorMatrix type="matrix" values="0 0 0 0 0 0 0 0 0 0 0 0 0 0 0 0 0 0 0.1 0"/>
<feBlend mode="normal" in2="BackgroundImageFix" result="effect1_dropShadow_1950_5565"/>
<feBlend mode="normal" in="SourceGraphic" in2="effect1_dropShadow_1950_5565" result="shape"/>
</filter>
<filter id="filter7_d_1950_5565" x="238" y="57" width="45" height="70" filterUnits="userSpaceOnUse" color-interpolation-filters="sRGB">
<feFlood flood-opacity="0" result="BackgroundImageFix"/>
<feColorMatrix in="SourceAlpha" type="matrix" values="0 0 0 0 0 0 0 0 0 0 0 0 0 0 0 0 0 0 127 0" result="hardAlpha"/>
<feOffset/>
<feGaussianBlur stdDeviation="5"/>
<feComposite in2="hardAlpha" operator="out"/>
<feColorMatrix type="matrix" values="0 0 0 0 0 0 0 0 0 0 0 0 0 0 0 0 0 0 0.1 0"/>
<feBlend mode="normal" in2="BackgroundImageFix" result="effect1_dropShadow_1950_5565"/>
<feBlend mode="normal" in="SourceGraphic" in2="effect1_dropShadow_1950_5565" result="shape"/>
</filter>
<filter id="filter8_d_1950_5565" x="272" y="57" width="45" height="70" filterUnits="userSpaceOnUse" color-interpolation-filters="sRGB">
<feFlood flood-opacity="0" result="BackgroundImageFix"/>
<feColorMatrix in="SourceAlpha" type="matrix" values="0 0 0 0 0 0 0 0 0 0 0 0 0 0 0 0 0 0 127 0" result="hardAlpha"/>
<feOffset/>
<feGaussianBlur stdDeviation="5"/>
<feComposite in2="hardAlpha" operator="out"/>
<feColorMatrix type="matrix" values="0 0 0 0 0 0 0 0 0 0 0 0 0 0 0 0 0 0 0.1 0"/>
<feBlend mode="normal" in2="BackgroundImageFix" result="effect1_dropShadow_1950_5565"/>
<feBlend mode="normal" in="SourceGraphic" in2="effect1_dropShadow_1950_5565" result="shape"/>
</filter>
<filter id="filter9_d_1950_5565" x="306" y="57" width="45" height="70" filterUnits="userSpaceOnUse" color-interpolation-filters="sRGB">
<feFlood flood-opacity="0" result="BackgroundImageFix"/>
<feColorMatrix in="SourceAlpha" type="matrix" values="0 0 0 0 0 0 0 0 0 0 0 0 0 0 0 0 0 0 127 0" result="hardAlpha"/>
<feOffset/>
<feGaussianBlur stdDeviation="5"/>
<feComposite in2="hardAlpha" operator="out"/>
<feColorMatrix type="matrix" values="0 0 0 0 0 0 0 0 0 0 0 0 0 0 0 0 0 0 0.1 0"/>
<feBlend mode="normal" in2="BackgroundImageFix" result="effect1_dropShadow_1950_5565"/>
<feBlend mode="normal" in="SourceGraphic" in2="effect1_dropShadow_1950_5565" result="shape"/>
</filter>
<filter id="filter10_d_1950_5565" x="340" y="57" width="45" height="70" filterUnits="userSpaceOnUse" color-interpolation-filters="sRGB">
<feFlood flood-opacity="0" result="BackgroundImageFix"/>
<feColorMatrix in="SourceAlpha" type="matrix" values="0 0 0 0 0 0 0 0 0 0 0 0 0 0 0 0 0 0 127 0" result="hardAlpha"/>
<feOffset/>
<feGaussianBlur stdDeviation="5"/>
<feComposite in2="hardAlpha" operator="out"/>
<feColorMatrix type="matrix" values="0 0 0 0 0 0 0 0 0 0 0 0 0 0 0 0 0 0 0.1 0"/>
<feBlend mode="normal" in2="BackgroundImageFix" result="effect1_dropShadow_1950_5565"/>
<feBlend mode="normal" in="SourceGraphic" in2="effect1_dropShadow_1950_5565" result="shape"/>
</filter>
<filter id="filter11_d_1950_5565" x="374" y="57" width="45" height="70" filterUnits="userSpaceOnUse" color-interpolation-filters="sRGB">
<feFlood flood-opacity="0" result="BackgroundImageFix"/>
<feColorMatrix in="SourceAlpha" type="matrix" values="0 0 0 0 0 0 0 0 0 0 0 0 0 0 0 0 0 0 127 0" result="hardAlpha"/>
<feOffset/>
<feGaussianBlur stdDeviation="5"/>
<feComposite in2="hardAlpha" operator="out"/>
<feColorMatrix type="matrix" values="0 0 0 0 0 0 0 0 0 0 0 0 0 0 0 0 0 0 0.1 0"/>
<feBlend mode="normal" in2="BackgroundImageFix" result="effect1_dropShadow_1950_5565"/>
<feBlend mode="normal" in="SourceGraphic" in2="effect1_dropShadow_1950_5565" result="shape"/>
</filter>
<filter id="filter12_d_1950_5565" x="408" y="57" width="45" height="70" filterUnits="userSpaceOnUse" color-interpolation-filters="sRGB">
<feFlood flood-opacity="0" result="BackgroundImageFix"/>
<feColorMatrix in="SourceAlpha" type="matrix" values="0 0 0 0 0 0 0 0 0 0 0 0 0 0 0 0 0 0 127 0" result="hardAlpha"/>
<feOffset/>
<feGaussianBlur stdDeviation="5"/>
<feComposite in2="hardAlpha" operator="out"/>
<feColorMatrix type="matrix" values="0 0 0 0 0 0 0 0 0 0 0 0 0 0 0 0 0 0 0.1 0"/>
<feBlend mode="normal" in2="BackgroundImageFix" result="effect1_dropShadow_1950_5565"/>
<feBlend mode="normal" in="SourceGraphic" in2="effect1_dropShadow_1950_5565" result="shape"/>
</filter>
<filter id="filter13_d_1950_5565" x="442" y="57" width="45" height="70" filterUnits="userSpaceOnUse" color-interpolation-filters="sRGB">
<feFlood flood-opacity="0" result="BackgroundImageFix"/>
<feColorMatrix in="SourceAlpha" type="matrix" values="0 0 0 0 0 0 0 0 0 0 0 0 0 0 0 0 0 0 127 0" result="hardAlpha"/>
<feOffset/>
<feGaussianBlur stdDeviation="5"/>
<feComposite in2="hardAlpha" operator="out"/>
<feColorMatrix type="matrix" values="0 0 0 0 0 0 0 0 0 0 0 0 0 0 0 0 0 0 0.1 0"/>
<feBlend mode="normal" in2="BackgroundImageFix" result="effect1_dropShadow_1950_5565"/>
<feBlend mode="normal" in="SourceGraphic" in2="effect1_dropShadow_1950_5565" result="shape"/>
</filter>
<linearGradient id="paint0_linear_1950_5565" x1="0" y1="70.5" x2="489" y2="70.5" gradientUnits="userSpaceOnUse">
<stop offset="0.05" stop-color="#F3F4F6"/>
<stop offset="0.25" stop-color="#F3F4F6" stop-opacity="0"/>
<stop offset="0.75" stop-color="#F3F4F6" stop-opacity="0"/>
<stop offset="0.95" stop-color="#F3F4F6"/>
</linearGradient>
<clipPath id="clip0_1950_5565">
<rect width="489" height="121" fill="white" transform="translate(0 5)"/>
</clipPath>
</defs>
</svg>
