<svg width="17" height="16" viewBox="0 0 17 16" fill="none" xmlns="http://www.w3.org/2000/svg">
    <g clipPath="url(#clip0_1140_6226)">
    <path d="M11.4798 10.3138C11.2845 10.509 11.2845 10.8256 11.4798 11.0209C11.675 11.2161 11.9916 11.2161 12.1869 11.0209L14.8536 8.3542C15.0488 8.15894 15.0488 7.84236 14.8536 7.6471L12.1869 4.98043C11.9916 4.78517 11.675 4.78517 11.4798 4.98043C11.2845 5.17569 11.2845 5.49228 11.4798 5.68754L13.2929 7.50065L2.5 7.50065C2.22386 7.50065 2 7.72451 2 8.00065C2 8.27679 2.22386 8.50065 2.5 8.50065L13.2929 8.50065L11.4798 10.3138Z" fill="#030712" />
    </g>
    <defs>
    <clipPath id="clip0_1140_6226">
        <rect width="16" height="16" fill="white" transform="translate(0.5)" />
    </clipPath>
    </defs>
</svg>