<svg width="480" height="139" viewBox="0 0 480 139" fill="none" xmlns="http://www.w3.org/2000/svg">
<g opacity="0.5">
<g clip-path="url(#clip0_1166_8259)">
<g opacity="0.1">
<path d="M48 23.5H0" stroke="#111827"/>
<path d="M48 47.5H0" stroke="#111827"/>
<path d="M23.5 0V48" stroke="#111827"/>
<path d="M47.5 0V48" stroke="#111827"/>
</g>
</g>
<g clip-path="url(#clip1_1166_8259)">
<g opacity="0.1">
<path d="M48 71.5H0" stroke="#111827"/>
<path d="M48 95.5H0" stroke="#111827"/>
<path d="M23.5 48V96" stroke="#111827"/>
<path d="M47.5 48V96" stroke="#111827"/>
</g>
</g>
<g clip-path="url(#clip2_1166_8259)">
<g opacity="0.1">
<path d="M48 119.5H0" stroke="#111827"/>
<path d="M23.5 96V144" stroke="#111827"/>
<path d="M47.5 96V144" stroke="#111827"/>
</g>
</g>
<g clip-path="url(#clip3_1166_8259)">
<g opacity="0.1">
<path d="M96 23.5H48" stroke="#111827"/>
<path d="M96 47.5H48" stroke="#111827"/>
<path d="M71.5 0V48" stroke="#111827"/>
<path d="M95.5 0V48" stroke="#111827"/>
</g>
</g>
<g clip-path="url(#clip4_1166_8259)">
<g opacity="0.1">
<path d="M96 71.5H48" stroke="#111827"/>
<path d="M96 95.5H48" stroke="#111827"/>
<path d="M71.5 48V96" stroke="#111827"/>
<path d="M95.5 48V96" stroke="#111827"/>
</g>
</g>
<g clip-path="url(#clip5_1166_8259)">
<g opacity="0.1">
<path d="M96 119.5H48" stroke="#111827"/>
<path d="M71.5 96V144" stroke="#111827"/>
<path d="M95.5 96V144" stroke="#111827"/>
</g>
</g>
<g clip-path="url(#clip6_1166_8259)">
<g opacity="0.1">
<path d="M144 23.5H96" stroke="#111827"/>
<path d="M144 47.5H96" stroke="#111827"/>
<path d="M119.5 0V48" stroke="#111827"/>
<path d="M143.5 0V48" stroke="#111827"/>
</g>
</g>
<g clip-path="url(#clip7_1166_8259)">
<g opacity="0.1">
<path d="M144 71.5H96" stroke="#111827"/>
<path d="M144 95.5H96" stroke="#111827"/>
<path d="M119.5 48V96" stroke="#111827"/>
<path d="M143.5 48V96" stroke="#111827"/>
</g>
</g>
<g clip-path="url(#clip8_1166_8259)">
<g opacity="0.1">
<path d="M144 119.5H96" stroke="#111827"/>
<path d="M119.5 96V144" stroke="#111827"/>
<path d="M143.5 96V144" stroke="#111827"/>
</g>
</g>
<g clip-path="url(#clip9_1166_8259)">
<g opacity="0.1">
<path d="M192 23.5H144" stroke="#111827"/>
<path d="M192 47.5H144" stroke="#111827"/>
<path d="M167.5 0V48" stroke="#111827"/>
<path d="M191.5 0V48" stroke="#111827"/>
</g>
</g>
<g clip-path="url(#clip10_1166_8259)">
<g opacity="0.1">
<path d="M192 71.5H144" stroke="#111827"/>
<path d="M192 95.5H144" stroke="#111827"/>
<path d="M167.5 48V96" stroke="#111827"/>
<path d="M191.5 48V96" stroke="#111827"/>
</g>
</g>
<g clip-path="url(#clip11_1166_8259)">
<g opacity="0.1">
<path d="M192 119.5H144" stroke="#111827"/>
<path d="M167.5 96V144" stroke="#111827"/>
<path d="M191.5 96V144" stroke="#111827"/>
</g>
</g>
<g clip-path="url(#clip12_1166_8259)">
<g opacity="0.1">
<path d="M240 23.5H192" stroke="#111827"/>
<path d="M240 47.5H192" stroke="#111827"/>
<path d="M215.5 0V48" stroke="#111827"/>
<path d="M239.5 0V48" stroke="#111827"/>
</g>
</g>
<g clip-path="url(#clip13_1166_8259)">
<g opacity="0.1">
<path d="M240 71.5H192" stroke="#111827"/>
<path d="M240 95.5H192" stroke="#111827"/>
<path d="M215.5 48V96" stroke="#111827"/>
<path d="M239.5 48V96" stroke="#111827"/>
</g>
</g>
<g clip-path="url(#clip14_1166_8259)">
<g opacity="0.1">
<path d="M240 119.5H192" stroke="#111827"/>
<path d="M215.5 96V144" stroke="#111827"/>
<path d="M239.5 96V144" stroke="#111827"/>
</g>
</g>
<g clip-path="url(#clip15_1166_8259)">
<g opacity="0.1">
<path d="M288 23.5H240" stroke="#111827"/>
<path d="M288 47.5H240" stroke="#111827"/>
<path d="M263.5 0V48" stroke="#111827"/>
<path d="M287.5 0V48" stroke="#111827"/>
</g>
</g>
<g clip-path="url(#clip16_1166_8259)">
<g opacity="0.1">
<path d="M288 71.5H240" stroke="#111827"/>
<path d="M288 95.5H240" stroke="#111827"/>
<path d="M263.5 48V96" stroke="#111827"/>
<path d="M287.5 48V96" stroke="#111827"/>
</g>
</g>
<g clip-path="url(#clip17_1166_8259)">
<g opacity="0.1">
<path d="M288 119.5H240" stroke="#111827"/>
<path d="M263.5 96V144" stroke="#111827"/>
<path d="M287.5 96V144" stroke="#111827"/>
</g>
</g>
<g clip-path="url(#clip18_1166_8259)">
<g opacity="0.1">
<path d="M336 23.5H288" stroke="#111827"/>
<path d="M336 47.5H288" stroke="#111827"/>
<path d="M311.5 0V48" stroke="#111827"/>
<path d="M335.5 0V48" stroke="#111827"/>
</g>
</g>
<g clip-path="url(#clip19_1166_8259)">
<g opacity="0.1">
<path d="M336 71.5H288" stroke="#111827"/>
<path d="M336 95.5H288" stroke="#111827"/>
<path d="M311.5 48V96" stroke="#111827"/>
<path d="M335.5 48V96" stroke="#111827"/>
</g>
</g>
<g clip-path="url(#clip20_1166_8259)">
<g opacity="0.1">
<path d="M336 119.5H288" stroke="#111827"/>
<path d="M311.5 96V144" stroke="#111827"/>
<path d="M335.5 96V144" stroke="#111827"/>
</g>
</g>
<g clip-path="url(#clip21_1166_8259)">
<g opacity="0.1">
<path d="M384 23.5H336" stroke="#111827"/>
<path d="M384 47.5H336" stroke="#111827"/>
<path d="M359.5 0V48" stroke="#111827"/>
<path d="M383.5 0V48" stroke="#111827"/>
</g>
</g>
<g clip-path="url(#clip22_1166_8259)">
<g opacity="0.1">
<path d="M384 71.5H336" stroke="#111827"/>
<path d="M384 95.5H336" stroke="#111827"/>
<path d="M359.5 48V96" stroke="#111827"/>
<path d="M383.5 48V96" stroke="#111827"/>
</g>
</g>
<g clip-path="url(#clip23_1166_8259)">
<g opacity="0.1">
<path d="M384 119.5H336" stroke="#111827"/>
<path d="M359.5 96V144" stroke="#111827"/>
<path d="M383.5 96V144" stroke="#111827"/>
</g>
</g>
<g clip-path="url(#clip24_1166_8259)">
<g opacity="0.1">
<path d="M432 23.5H384" stroke="#111827"/>
<path d="M432 47.5H384" stroke="#111827"/>
<path d="M407.5 0V48" stroke="#111827"/>
<path d="M431.5 0V48" stroke="#111827"/>
</g>
</g>
<g clip-path="url(#clip25_1166_8259)">
<g opacity="0.1">
<path d="M432 71.5H384" stroke="#111827"/>
<path d="M432 95.5H384" stroke="#111827"/>
<path d="M407.5 48V96" stroke="#111827"/>
<path d="M431.5 48V96" stroke="#111827"/>
</g>
</g>
<g clip-path="url(#clip26_1166_8259)">
<g opacity="0.1">
<path d="M432 119.5H384" stroke="#111827"/>
<path d="M407.5 96V144" stroke="#111827"/>
<path d="M431.5 96V144" stroke="#111827"/>
</g>
</g>
<g clip-path="url(#clip27_1166_8259)">
<g opacity="0.1">
<path d="M480 23.5H432" stroke="#111827"/>
<path d="M480 47.5H432" stroke="#111827"/>
<path d="M455.5 0V48" stroke="#111827"/>
<path d="M479.5 0V48" stroke="#111827"/>
</g>
</g>
<g clip-path="url(#clip28_1166_8259)">
<g opacity="0.1">
<path d="M480 71.5H432" stroke="#111827"/>
<path d="M480 95.5H432" stroke="#111827"/>
<path d="M455.5 48V96" stroke="#111827"/>
<path d="M479.5 48V96" stroke="#111827"/>
</g>
</g>
<g clip-path="url(#clip29_1166_8259)">
<g opacity="0.1">
<path d="M480 119.5H432" stroke="#111827"/>
<path d="M455.5 96V144" stroke="#111827"/>
<path d="M479.5 96V144" stroke="#111827"/>
</g>
</g>
</g>
<g filter="url(#filter0_d_1166_8259)">
<rect x="90" y="42" width="300" height="58" rx="6" fill="#F3F4F6" shape-rendering="crispEdges"/>
<rect x="90.75" y="42.75" width="298.5" height="56.5" rx="5.25" stroke="url(#paint0_linear_1166_8259)" stroke-width="1.5" shape-rendering="crispEdges"/>
<g clip-path="url(#clip30_1166_8259)">
<path fill-rule="evenodd" clip-rule="evenodd" d="M119 53.3327C119 52.9645 119.299 52.666 119.667 52.666L121.331 52.666C121.332 52.666 121.333 52.666 121.333 52.666C121.334 52.666 121.335 52.666 121.335 52.666L123 52.666C123.368 52.666 123.667 52.9645 123.667 53.3327C123.667 53.7009 123.368 53.9994 123 53.9994L122 53.9994V55.3327L122.559 55.3327C122.911 55.3327 123.214 55.3327 123.463 55.3531C123.727 55.3746 123.989 55.4221 124.241 55.5507C124.618 55.7424 124.924 56.0484 125.115 56.4247C125.244 56.677 125.292 56.9391 125.313 57.2027C125.333 57.4524 125.333 57.7555 125.333 58.107V61.8917C125.333 62.2432 125.333 62.5463 125.313 62.796C125.292 63.0596 125.244 63.3217 125.115 63.574C124.924 63.9503 124.618 64.2563 124.241 64.448C123.989 64.5766 123.727 64.6241 123.463 64.6456C123.214 64.666 122.911 64.666 122.559 64.666H122V65.9994L123 65.9994C123.368 65.9994 123.667 66.2978 123.667 66.666C123.667 67.0342 123.368 67.3327 123 67.3327L119.667 67.3327C119.299 67.3327 119 67.0342 119 66.666C119 66.2978 119.299 65.9993 119.667 65.9993L120.667 65.9994V64.0002C120.667 63.9999 120.667 63.9996 120.667 63.9993C120.667 63.9991 120.667 63.9988 120.667 63.9985V55.9998C120.667 55.9996 120.667 55.9999 120.667 55.9998C120.667 55.9996 120.667 55.9991 120.667 55.9989V53.9994L119.667 53.9993C119.299 53.9993 119 53.7009 119 53.3327ZM122 56.666V63.3327H122.533C122.918 63.3327 123.166 63.3322 123.355 63.3167C123.536 63.3019 123.603 63.2768 123.636 63.26C123.762 63.1961 123.864 63.0941 123.927 62.9687C123.944 62.9357 123.969 62.8686 123.984 62.6875C124 62.4986 124 62.2504 124 61.866V58.1327C124 57.7483 124 57.5001 123.984 57.3112C123.969 57.1301 123.944 57.063 123.927 57.03C123.864 56.9046 123.762 56.8026 123.636 56.7387C123.603 56.7219 123.536 56.6968 123.355 56.682C123.166 56.6665 122.918 56.666 122.533 56.666H122ZM116.2 55.9993C116.2 55.6312 116.499 55.3327 116.867 55.3327H118.667C119.035 55.3327 119.333 55.6312 119.333 55.9993C119.333 56.3675 119.035 56.666 118.667 56.666H116.867C116.499 56.666 116.2 56.3675 116.2 55.9993ZM111.333 59.3327C111.702 59.3327 112 59.6312 112 59.9993V61.866C112 62.2504 112.001 62.4986 112.016 62.6875C112.031 62.8686 112.056 62.9357 112.073 62.9687C112.137 63.0941 112.239 63.1961 112.364 63.26C112.397 63.2768 112.464 63.3019 112.645 63.3167C112.834 63.3322 113.082 63.3327 113.467 63.3327H118.667C119.035 63.3327 119.333 63.6312 119.333 63.9993C119.333 64.3675 119.035 64.666 118.667 64.666H113.441C113.09 64.666 112.786 64.666 112.537 64.6456C112.273 64.6241 112.011 64.5766 111.759 64.448C111.382 64.2563 111.076 63.9503 110.885 63.574C110.756 63.3217 110.709 63.0596 110.687 62.796C110.667 62.5463 110.667 62.2431 110.667 61.8917L110.667 59.9993C110.667 59.6312 110.965 59.3327 111.333 59.3327Z" fill="#030712"/>
<path d="M114.667 56C112.952 55.7143 112.952 55.7143 112.667 54C112.381 55.7143 112.381 55.7143 110.667 56C112.381 56.2857 112.381 56.2857 112.667 58C112.952 56.2857 112.952 56.2857 114.667 56Z" fill="#F723F7" stroke="#F723F7" stroke-width="1.5" stroke-linecap="round" stroke-linejoin="round"/>
</g>
<path d="M140.195 67V62.568L136.147 55.8H138.035L141.027 60.968H141.059L144.051 55.8H145.939L141.875 62.568V67H140.195ZM149.054 67.192C146.798 67.192 145.134 65.56 145.134 63.208C145.134 60.872 146.798 59.24 149.054 59.24C151.31 59.24 152.974 60.872 152.974 63.208C152.974 65.56 151.31 67.192 149.054 67.192ZM146.766 63.208C146.766 64.776 147.726 65.8 149.054 65.8C150.382 65.8 151.342 64.776 151.342 63.208C151.342 61.656 150.382 60.632 149.054 60.632C147.726 60.632 146.766 61.656 146.766 63.208ZM156.992 67.192C155.44 67.192 154.336 66.136 154.336 64.2V59.432H155.936V63.624C155.936 65.192 156.512 65.752 157.488 65.752C158.608 65.752 159.376 65.032 159.376 63.528V59.432H160.976V67H159.536L159.44 66.008H159.392C158.912 66.744 158 67.192 156.992 67.192ZM162.857 67V59.432H164.297L164.409 60.584H164.457C164.809 59.768 165.609 59.288 166.537 59.288C166.825 59.288 167.081 59.336 167.289 59.416V60.84C167.049 60.808 166.825 60.792 166.617 60.792C165.225 60.792 164.457 61.56 164.457 63.176V67H162.857ZM176.798 67.192C173.678 67.192 171.294 64.824 171.294 61.4C171.294 57.976 173.678 55.608 176.798 55.608C179.47 55.608 181.534 57.256 181.902 59.64L180.19 59.912C179.87 58.184 178.574 57.144 176.846 57.144C174.67 57.144 173.022 58.776 173.022 61.4C173.022 64.024 174.67 65.656 176.846 65.656C178.574 65.656 179.886 64.616 180.206 62.888L181.87 63.16C181.502 65.544 179.422 67.192 176.798 67.192ZM185.853 67.192C184.301 67.192 183.197 66.136 183.197 64.2V59.432H184.797V63.624C184.797 65.192 185.373 65.752 186.349 65.752C187.469 65.752 188.237 65.032 188.237 63.528V59.432H189.837V67H188.397L188.301 66.008H188.253C187.773 66.744 186.861 67.192 185.853 67.192ZM194.342 67.192C192.678 67.192 191.446 66.392 191.19 65.048L192.63 64.696C192.886 65.512 193.51 65.912 194.358 65.912C195.254 65.912 195.83 65.48 195.83 64.872C195.83 64.392 195.478 64.072 194.422 63.864L193.494 63.688C191.99 63.384 191.254 62.696 191.254 61.592C191.254 60.232 192.406 59.24 194.262 59.24C195.878 59.24 196.966 59.992 197.222 61.24L195.766 61.576C195.542 60.856 194.998 60.504 194.182 60.504C193.318 60.504 192.806 60.904 192.806 61.496C192.806 61.928 193.062 62.184 194.214 62.408L195.142 62.6C196.694 62.888 197.366 63.576 197.366 64.744C197.366 66.168 196.246 67.192 194.342 67.192ZM201.78 67.192C199.971 67.192 199.091 66.376 199.091 64.328V60.808H197.763V59.432H199.091V57.544H200.691V59.432H202.772V60.808H200.691V64.28C200.691 65.464 201.091 65.816 202.131 65.816C202.355 65.816 202.611 65.8 202.835 65.752V67.08C202.579 67.144 202.227 67.192 201.78 67.192ZM207.324 67.192C205.068 67.192 203.404 65.56 203.404 63.208C203.404 60.872 205.068 59.24 207.324 59.24C209.58 59.24 211.244 60.872 211.244 63.208C211.244 65.56 209.58 67.192 207.324 67.192ZM205.036 63.208C205.036 64.776 205.996 65.8 207.324 65.8C208.652 65.8 209.612 64.776 209.612 63.208C209.612 61.656 208.652 60.632 207.324 60.632C205.996 60.632 205.036 61.656 205.036 63.208Z" fill="#111827"/>
<rect x="210" y="57.5" width="79" height="8" rx="4" fill="#111827"/>
<path d="M144.08 81H143.023C142.96 80.696 142.851 80.429 142.695 80.1989C142.541 79.9688 142.354 79.7756 142.132 79.6193C141.913 79.4602 141.67 79.3409 141.403 79.2614C141.136 79.1818 140.858 79.142 140.568 79.142C140.04 79.142 139.561 79.2756 139.132 79.5426C138.706 79.8097 138.366 80.2031 138.114 80.723C137.864 81.2429 137.739 81.8807 137.739 82.6364C137.739 83.392 137.864 84.0298 138.114 84.5497C138.366 85.0696 138.706 85.4631 139.132 85.7301C139.561 85.9972 140.04 86.1307 140.568 86.1307C140.858 86.1307 141.136 86.0909 141.403 86.0114C141.67 85.9318 141.913 85.8139 142.132 85.6577C142.354 85.4986 142.541 85.304 142.695 85.0739C142.851 84.8409 142.96 84.5739 143.023 84.2727H144.08C144 84.7187 143.855 85.1179 143.645 85.4702C143.435 85.8224 143.173 86.1222 142.861 86.3693C142.548 86.6136 142.197 86.7997 141.808 86.9276C141.422 87.0554 141.009 87.1193 140.568 87.1193C139.824 87.1193 139.162 86.9375 138.582 86.5739C138.003 86.2102 137.547 85.6932 137.214 85.0227C136.882 84.3523 136.716 83.5568 136.716 82.6364C136.716 81.7159 136.882 80.9205 137.214 80.25C137.547 79.5795 138.003 79.0625 138.582 78.6989C139.162 78.3352 139.824 78.1534 140.568 78.1534C141.009 78.1534 141.422 78.2173 141.808 78.3452C142.197 78.473 142.548 78.6605 142.861 78.9077C143.173 79.152 143.435 79.4503 143.645 79.8026C143.855 80.152 144 80.5511 144.08 81ZM145.531 87V80.4545H146.503V81.4432H146.571C146.69 81.1193 146.906 80.8565 147.218 80.6548C147.531 80.4531 147.883 80.3523 148.275 80.3523C148.349 80.3523 148.441 80.3537 148.552 80.3565C148.663 80.3594 148.747 80.3636 148.804 80.3693V81.392C148.77 81.3835 148.691 81.3707 148.569 81.3537C148.45 81.3338 148.324 81.3239 148.19 81.3239C147.872 81.3239 147.588 81.3906 147.338 81.5241C147.091 81.6548 146.895 81.8366 146.75 82.0696C146.608 82.2997 146.537 82.5625 146.537 82.858V87H145.531ZM152.421 87.1364C151.79 87.1364 151.246 86.9972 150.789 86.7188C150.334 86.4375 149.983 86.0455 149.736 85.5426C149.492 85.0369 149.37 84.4489 149.37 83.7784C149.37 83.108 149.492 82.517 149.736 82.0057C149.983 81.4915 150.327 81.0909 150.767 80.804C151.211 80.5142 151.728 80.3693 152.319 80.3693C152.66 80.3693 152.996 80.4261 153.329 80.5398C153.661 80.6534 153.963 80.8381 154.236 81.0938C154.509 81.3466 154.726 81.6818 154.888 82.0994C155.05 82.517 155.131 83.0312 155.131 83.642V84.0682H150.086V83.1989H154.108C154.108 82.8295 154.035 82.5 153.887 82.2102C153.742 81.9205 153.535 81.6918 153.265 81.5241C152.998 81.3565 152.682 81.2727 152.319 81.2727C151.918 81.2727 151.571 81.3722 151.279 81.571C150.989 81.767 150.766 82.0227 150.61 82.3381C150.454 82.6534 150.375 82.9915 150.375 83.3523V83.9318C150.375 84.4261 150.461 84.8452 150.631 85.1889C150.804 85.5298 151.044 85.7898 151.351 85.9688C151.658 86.1449 152.015 86.233 152.421 86.233C152.685 86.233 152.924 86.196 153.137 86.1222C153.353 86.0455 153.539 85.9318 153.695 85.7812C153.851 85.6278 153.972 85.4375 154.057 85.2102L155.029 85.483C154.927 85.8125 154.755 86.1023 154.513 86.3523C154.272 86.5994 153.973 86.7926 153.618 86.9318C153.263 87.0682 152.864 87.1364 152.421 87.1364ZM158.467 87.1534C158.052 87.1534 157.676 87.0753 157.338 86.919C157 86.7599 156.731 86.5312 156.532 86.233C156.334 85.9318 156.234 85.5682 156.234 85.142C156.234 84.767 156.308 84.4631 156.456 84.2301C156.603 83.9943 156.801 83.8097 157.048 83.6761C157.295 83.5426 157.568 83.4432 157.866 83.3778C158.167 83.3097 158.47 83.2557 158.774 83.2159C159.172 83.1648 159.494 83.1264 159.741 83.1009C159.991 83.0724 160.173 83.0256 160.287 82.9602C160.403 82.8949 160.461 82.7812 160.461 82.6193V82.5852C160.461 82.1648 160.346 81.8381 160.116 81.6051C159.889 81.3722 159.544 81.2557 159.081 81.2557C158.601 81.2557 158.224 81.3608 157.951 81.571C157.679 81.7812 157.487 82.0057 157.376 82.2443L156.422 81.9034C156.592 81.5057 156.819 81.196 157.103 80.9744C157.39 80.75 157.703 80.5937 158.041 80.5057C158.382 80.4148 158.717 80.3693 159.047 80.3693C159.257 80.3693 159.498 80.3949 159.771 80.446C160.047 80.4943 160.312 80.5952 160.568 80.7486C160.826 80.902 161.041 81.1335 161.211 81.4432C161.382 81.7528 161.467 82.1676 161.467 82.6875V87H160.461V86.1136H160.41C160.342 86.2557 160.228 86.4077 160.069 86.5696C159.91 86.7315 159.699 86.8693 159.434 86.983C159.17 87.0966 158.848 87.1534 158.467 87.1534ZM158.62 86.25C159.018 86.25 159.353 86.1719 159.626 86.0156C159.902 85.8594 160.109 85.6577 160.248 85.4105C160.39 85.1634 160.461 84.9034 160.461 84.6307V83.7102C160.419 83.7614 160.325 83.8082 160.18 83.8509C160.038 83.8906 159.873 83.9261 159.686 83.9574C159.501 83.9858 159.321 84.0114 159.145 84.0341C158.971 84.054 158.831 84.071 158.723 84.0852C158.461 84.1193 158.217 84.1747 157.99 84.2514C157.765 84.3253 157.584 84.4375 157.444 84.5881C157.308 84.7358 157.24 84.9375 157.24 85.1932C157.24 85.5426 157.369 85.8068 157.628 85.9858C157.889 86.1619 158.22 86.25 158.62 86.25ZM166.029 80.4545V81.3068H162.637V80.4545H166.029ZM163.626 78.8864H164.632V85.125C164.632 85.4091 164.673 85.6222 164.755 85.7642C164.84 85.9034 164.948 85.9972 165.079 86.0455C165.212 86.0909 165.353 86.1136 165.501 86.1136C165.612 86.1136 165.703 86.108 165.774 86.0966C165.845 86.0824 165.901 86.071 165.944 86.0625L166.149 86.9659C166.08 86.9915 165.985 87.017 165.863 87.0426C165.741 87.071 165.586 87.0852 165.399 87.0852C165.114 87.0852 164.836 87.0241 164.563 86.902C164.293 86.7798 164.069 86.5938 163.89 86.3438C163.714 86.0938 163.626 85.7784 163.626 85.3977V78.8864ZM170.096 87.1364C169.465 87.1364 168.921 86.9972 168.464 86.7188C168.009 86.4375 167.659 86.0455 167.411 85.5426C167.167 85.0369 167.045 84.4489 167.045 83.7784C167.045 83.108 167.167 82.517 167.411 82.0057C167.659 81.4915 168.002 81.0909 168.443 80.804C168.886 80.5142 169.403 80.3693 169.994 80.3693C170.335 80.3693 170.671 80.4261 171.004 80.5398C171.336 80.6534 171.639 80.8381 171.911 81.0938C172.184 81.3466 172.401 81.6818 172.563 82.0994C172.725 82.517 172.806 83.0312 172.806 83.642V84.0682H167.761V83.1989H171.784C171.784 82.8295 171.71 82.5 171.562 82.2102C171.417 81.9205 171.21 81.6918 170.94 81.5241C170.673 81.3565 170.357 81.2727 169.994 81.2727C169.593 81.2727 169.247 81.3722 168.954 81.571C168.664 81.767 168.441 82.0227 168.285 82.3381C168.129 82.6534 168.051 82.9915 168.051 83.3523V83.9318C168.051 84.4261 168.136 84.8452 168.306 85.1889C168.48 85.5298 168.72 85.7898 169.026 85.9688C169.333 86.1449 169.69 86.233 170.096 86.233C170.36 86.233 170.599 86.196 170.812 86.1222C171.028 86.0455 171.214 85.9318 171.37 85.7812C171.526 85.6278 171.647 85.4375 171.732 85.2102L172.704 85.483C172.602 85.8125 172.43 86.1023 172.188 86.3523C171.947 86.5994 171.649 86.7926 171.293 86.9318C170.938 87.0682 170.539 87.1364 170.096 87.1364ZM177.471 87V80.4545H178.443V81.4773H178.528C178.664 81.1278 178.884 80.8565 179.188 80.6634C179.492 80.4673 179.857 80.3693 180.284 80.3693C180.715 80.3693 181.075 80.4673 181.362 80.6634C181.651 80.8565 181.877 81.1278 182.039 81.4773H182.107C182.275 81.1392 182.526 80.8707 182.862 80.6719C183.197 80.4702 183.599 80.3693 184.068 80.3693C184.653 80.3693 185.132 80.5526 185.504 80.919C185.876 81.2827 186.062 81.8494 186.062 82.6193V87H185.056V82.6193C185.056 82.1364 184.924 81.7912 184.66 81.5838C184.396 81.3764 184.085 81.2727 183.727 81.2727C183.267 81.2727 182.91 81.4119 182.657 81.6903C182.404 81.9659 182.278 82.3153 182.278 82.7386V87H181.255V82.517C181.255 82.1449 181.134 81.8452 180.893 81.6179C180.651 81.3878 180.34 81.2727 179.96 81.2727C179.698 81.2727 179.454 81.3423 179.227 81.4815C179.002 81.6207 178.821 81.8139 178.681 82.0611C178.545 82.3054 178.477 82.5881 178.477 82.9091V87H177.471ZM190.525 87.1364C189.894 87.1364 189.35 86.9972 188.893 86.7188C188.438 86.4375 188.088 86.0455 187.84 85.5426C187.596 85.0369 187.474 84.4489 187.474 83.7784C187.474 83.108 187.596 82.517 187.84 82.0057C188.088 81.4915 188.431 81.0909 188.872 80.804C189.315 80.5142 189.832 80.3693 190.423 80.3693C190.764 80.3693 191.1 80.4261 191.433 80.5398C191.765 80.6534 192.068 80.8381 192.34 81.0938C192.613 81.3466 192.83 81.6818 192.992 82.0994C193.154 82.517 193.235 83.0312 193.235 83.642V84.0682H188.19V83.1989H192.213C192.213 82.8295 192.139 82.5 191.991 82.2102C191.846 81.9205 191.639 81.6918 191.369 81.5241C191.102 81.3565 190.786 81.2727 190.423 81.2727C190.022 81.2727 189.676 81.3722 189.383 81.571C189.093 81.767 188.87 82.0227 188.714 82.3381C188.558 82.6534 188.48 82.9915 188.48 83.3523V83.9318C188.48 84.4261 188.565 84.8452 188.735 85.1889C188.909 85.5298 189.149 85.7898 189.455 85.9688C189.762 86.1449 190.119 86.233 190.525 86.233C190.789 86.233 191.028 86.196 191.241 86.1222C191.457 86.0455 191.643 85.9318 191.799 85.7812C191.955 85.6278 192.076 85.4375 192.161 85.2102L193.133 85.483C193.031 85.8125 192.859 86.1023 192.617 86.3523C192.376 86.5994 192.078 86.7926 191.723 86.9318C191.367 87.0682 190.968 87.1364 190.525 87.1364ZM199.826 87.1534C199.412 87.1534 199.035 87.0753 198.697 86.919C198.359 86.7599 198.09 86.5312 197.892 86.233C197.693 85.9318 197.593 85.5682 197.593 85.142C197.593 84.767 197.667 84.4631 197.815 84.2301C197.963 83.9943 198.16 83.8097 198.407 83.6761C198.654 83.5426 198.927 83.4432 199.225 83.3778C199.527 83.3097 199.829 83.2557 200.133 83.2159C200.531 83.1648 200.853 83.1264 201.1 83.1009C201.35 83.0724 201.532 83.0256 201.646 82.9602C201.762 82.8949 201.821 82.7812 201.821 82.6193V82.5852C201.821 82.1648 201.706 81.8381 201.475 81.6051C201.248 81.3722 200.903 81.2557 200.44 81.2557C199.96 81.2557 199.583 81.3608 199.311 81.571C199.038 81.7812 198.846 82.0057 198.735 82.2443L197.781 81.9034C197.951 81.5057 198.179 81.196 198.463 80.9744C198.75 80.75 199.062 80.5937 199.4 80.5057C199.741 80.4148 200.076 80.3693 200.406 80.3693C200.616 80.3693 200.858 80.3949 201.13 80.446C201.406 80.4943 201.671 80.5952 201.927 80.7486C202.186 80.902 202.4 81.1335 202.571 81.4432C202.741 81.7528 202.826 82.1676 202.826 82.6875V87H201.821V86.1136H201.769C201.701 86.2557 201.588 86.4077 201.429 86.5696C201.269 86.7315 201.058 86.8693 200.794 86.983C200.529 87.0966 200.207 87.1534 199.826 87.1534ZM199.98 86.25C200.377 86.25 200.713 86.1719 200.985 86.0156C201.261 85.8594 201.468 85.6577 201.608 85.4105C201.75 85.1634 201.821 84.9034 201.821 84.6307V83.7102C201.778 83.7614 201.684 83.8082 201.539 83.8509C201.397 83.8906 201.233 83.9261 201.045 83.9574C200.86 83.9858 200.68 84.0114 200.504 84.0341C200.331 84.054 200.19 84.071 200.082 84.0852C199.821 84.1193 199.576 84.1747 199.349 84.2514C199.125 84.3253 198.943 84.4375 198.804 84.5881C198.667 84.7358 198.599 84.9375 198.599 85.1932C198.599 85.5426 198.728 85.8068 198.987 85.9858C199.248 86.1619 199.579 86.25 199.98 86.25ZM207.797 89.4545V80.4545H208.768V81.4943H208.888C208.962 81.3807 209.064 81.2358 209.195 81.0597C209.328 80.8807 209.518 80.7216 209.766 80.5824C210.016 80.4403 210.354 80.3693 210.78 80.3693C211.331 80.3693 211.817 80.5071 212.237 80.7827C212.658 81.0582 212.986 81.4489 213.222 81.9545C213.457 82.4602 213.575 83.0568 213.575 83.7443C213.575 84.4375 213.457 85.0384 213.222 85.5469C212.986 86.0526 212.659 86.4446 212.241 86.723C211.824 86.9986 211.342 87.1364 210.797 87.1364C210.376 87.1364 210.04 87.0668 209.787 86.9276C209.534 86.7855 209.339 86.625 209.203 86.446C209.067 86.2642 208.962 86.1136 208.888 85.9943H208.803V89.4545H207.797ZM208.785 83.7273C208.785 84.2216 208.858 84.6577 209.003 85.0355C209.148 85.4105 209.359 85.7045 209.638 85.9176C209.916 86.1278 210.257 86.233 210.66 86.233C211.081 86.233 211.432 86.1222 211.713 85.9006C211.997 85.6761 212.21 85.375 212.352 84.9972C212.497 84.6165 212.57 84.1932 212.57 83.7273C212.57 83.267 212.499 82.8523 212.357 82.483C212.217 82.1108 212.006 81.8168 211.722 81.6009C211.44 81.3821 211.087 81.2727 210.66 81.2727C210.251 81.2727 209.908 81.3764 209.629 81.5838C209.351 81.7884 209.141 82.0753 208.999 82.4446C208.857 82.8111 208.785 83.2386 208.785 83.7273Z" fill="#4B5563"/>
<rect x="212" y="78.5" width="79" height="8" rx="4" fill="#E5E7EB"/>
</g>
<g filter="url(#filter1_d_1166_8259)">
<rect x="220" y="34" width="3.75" height="20" rx="1.875" transform="rotate(90 220 34)" fill="#F723F7"/>
<rect x="219.5" y="34.5" width="2.75" height="19" rx="1.375" transform="rotate(90 219.5 34.5)" stroke="#D300C5"/>
</g>
<g filter="url(#filter2_d_1166_8259)">
<rect x="220" y="105.25" width="3.75" height="20" rx="1.875" transform="rotate(90 220 105.25)" fill="#F723F7"/>
<rect x="219.5" y="105.75" width="2.75" height="19" rx="1.375" transform="rotate(90 219.5 105.75)" stroke="#D300C5"/>
</g>
<g filter="url(#filter3_d_1166_8259)">
<mask id="path-123-inside-1_1166_8259" fill="white">
<path d="M208 36.8125H212V106.188H208V36.8125Z"/>
</mask>
<path d="M208 36.8125H212V106.188H208V36.8125Z" fill="#F723F7"/>
<path d="M211 36.8125V106.188H213V36.8125H211ZM209 106.188V36.8125H207V106.188H209Z" fill="#D300C5" mask="url(#path-123-inside-1_1166_8259)"/>
</g>
<rect width="480" height="480" transform="translate(0 -169)" fill="url(#paint1_radial_1166_8259)"/>
<defs>
<filter id="filter0_d_1166_8259" x="81" y="33" width="318" height="76" filterUnits="userSpaceOnUse" color-interpolation-filters="sRGB">
<feFlood flood-opacity="0" result="BackgroundImageFix"/>
<feColorMatrix in="SourceAlpha" type="matrix" values="0 0 0 0 0 0 0 0 0 0 0 0 0 0 0 0 0 0 127 0" result="hardAlpha"/>
<feOffset/>
<feGaussianBlur stdDeviation="4.5"/>
<feComposite in2="hardAlpha" operator="out"/>
<feColorMatrix type="matrix" values="0 0 0 0 0 0 0 0 0 0 0 0 0 0 0 0 0 0 0.1 0"/>
<feBlend mode="normal" in2="BackgroundImageFix" result="effect1_dropShadow_1166_8259"/>
<feBlend mode="normal" in="SourceGraphic" in2="effect1_dropShadow_1166_8259" result="shape"/>
</filter>
<filter id="filter1_d_1166_8259" x="190" y="24" width="40" height="23.75" filterUnits="userSpaceOnUse" color-interpolation-filters="sRGB">
<feFlood flood-opacity="0" result="BackgroundImageFix"/>
<feColorMatrix in="SourceAlpha" type="matrix" values="0 0 0 0 0 0 0 0 0 0 0 0 0 0 0 0 0 0 127 0" result="hardAlpha"/>
<feOffset/>
<feGaussianBlur stdDeviation="5"/>
<feComposite in2="hardAlpha" operator="out"/>
<feColorMatrix type="matrix" values="0 0 0 0 0.968627 0 0 0 0 0.137255 0 0 0 0 0.968627 0 0 0 0.3 0"/>
<feBlend mode="normal" in2="BackgroundImageFix" result="effect1_dropShadow_1166_8259"/>
<feBlend mode="normal" in="SourceGraphic" in2="effect1_dropShadow_1166_8259" result="shape"/>
</filter>
<filter id="filter2_d_1166_8259" x="190" y="95.25" width="40" height="23.75" filterUnits="userSpaceOnUse" color-interpolation-filters="sRGB">
<feFlood flood-opacity="0" result="BackgroundImageFix"/>
<feColorMatrix in="SourceAlpha" type="matrix" values="0 0 0 0 0 0 0 0 0 0 0 0 0 0 0 0 0 0 127 0" result="hardAlpha"/>
<feOffset/>
<feGaussianBlur stdDeviation="5"/>
<feComposite in2="hardAlpha" operator="out"/>
<feColorMatrix type="matrix" values="0 0 0 0 0.968627 0 0 0 0 0.137255 0 0 0 0 0.968627 0 0 0 0.3 0"/>
<feBlend mode="normal" in2="BackgroundImageFix" result="effect1_dropShadow_1166_8259"/>
<feBlend mode="normal" in="SourceGraphic" in2="effect1_dropShadow_1166_8259" result="shape"/>
</filter>
<filter id="filter3_d_1166_8259" x="198" y="26.8125" width="24" height="89.375" filterUnits="userSpaceOnUse" color-interpolation-filters="sRGB">
<feFlood flood-opacity="0" result="BackgroundImageFix"/>
<feColorMatrix in="SourceAlpha" type="matrix" values="0 0 0 0 0 0 0 0 0 0 0 0 0 0 0 0 0 0 127 0" result="hardAlpha"/>
<feOffset/>
<feGaussianBlur stdDeviation="5"/>
<feComposite in2="hardAlpha" operator="out"/>
<feColorMatrix type="matrix" values="0 0 0 0 0.968627 0 0 0 0 0.137255 0 0 0 0 0.968627 0 0 0 0.3 0"/>
<feBlend mode="normal" in2="BackgroundImageFix" result="effect1_dropShadow_1166_8259"/>
<feBlend mode="normal" in="SourceGraphic" in2="effect1_dropShadow_1166_8259" result="shape"/>
</filter>
<linearGradient id="paint0_linear_1166_8259" x1="240" y1="42" x2="240" y2="100" gradientUnits="userSpaceOnUse">
<stop stop-color="#F6F6F6"/>
<stop offset="1" stop-color="#E5E7EB"/>
</linearGradient>
<radialGradient id="paint1_radial_1166_8259" cx="0" cy="0" r="1" gradientUnits="userSpaceOnUse" gradientTransform="translate(207.5 240) rotate(-180) scale(335.5 1266.52)">
<stop stop-color="#F3F4F6" stop-opacity="0"/>
<stop offset="1" stop-color="#F3F4F6"/>
</radialGradient>
<clipPath id="clip0_1166_8259">
<rect width="48" height="48" fill="white"/>
</clipPath>
<clipPath id="clip1_1166_8259">
<rect width="48" height="48" fill="white" transform="translate(0 48)"/>
</clipPath>
<clipPath id="clip2_1166_8259">
<rect width="48" height="48" fill="white" transform="translate(0 96)"/>
</clipPath>
<clipPath id="clip3_1166_8259">
<rect width="48" height="48" fill="white" transform="translate(48)"/>
</clipPath>
<clipPath id="clip4_1166_8259">
<rect width="48" height="48" fill="white" transform="translate(48 48)"/>
</clipPath>
<clipPath id="clip5_1166_8259">
<rect width="48" height="48" fill="white" transform="translate(48 96)"/>
</clipPath>
<clipPath id="clip6_1166_8259">
<rect width="48" height="48" fill="white" transform="translate(96)"/>
</clipPath>
<clipPath id="clip7_1166_8259">
<rect width="48" height="48" fill="white" transform="translate(96 48)"/>
</clipPath>
<clipPath id="clip8_1166_8259">
<rect width="48" height="48" fill="white" transform="translate(96 96)"/>
</clipPath>
<clipPath id="clip9_1166_8259">
<rect width="48" height="48" fill="white" transform="translate(144)"/>
</clipPath>
<clipPath id="clip10_1166_8259">
<rect width="48" height="48" fill="white" transform="translate(144 48)"/>
</clipPath>
<clipPath id="clip11_1166_8259">
<rect width="48" height="48" fill="white" transform="translate(144 96)"/>
</clipPath>
<clipPath id="clip12_1166_8259">
<rect width="48" height="48" fill="white" transform="translate(192)"/>
</clipPath>
<clipPath id="clip13_1166_8259">
<rect width="48" height="48" fill="white" transform="translate(192 48)"/>
</clipPath>
<clipPath id="clip14_1166_8259">
<rect width="48" height="48" fill="white" transform="translate(192 96)"/>
</clipPath>
<clipPath id="clip15_1166_8259">
<rect width="48" height="48" fill="white" transform="translate(240)"/>
</clipPath>
<clipPath id="clip16_1166_8259">
<rect width="48" height="48" fill="white" transform="translate(240 48)"/>
</clipPath>
<clipPath id="clip17_1166_8259">
<rect width="48" height="48" fill="white" transform="translate(240 96)"/>
</clipPath>
<clipPath id="clip18_1166_8259">
<rect width="48" height="48" fill="white" transform="translate(288)"/>
</clipPath>
<clipPath id="clip19_1166_8259">
<rect width="48" height="48" fill="white" transform="translate(288 48)"/>
</clipPath>
<clipPath id="clip20_1166_8259">
<rect width="48" height="48" fill="white" transform="translate(288 96)"/>
</clipPath>
<clipPath id="clip21_1166_8259">
<rect width="48" height="48" fill="white" transform="translate(336)"/>
</clipPath>
<clipPath id="clip22_1166_8259">
<rect width="48" height="48" fill="white" transform="translate(336 48)"/>
</clipPath>
<clipPath id="clip23_1166_8259">
<rect width="48" height="48" fill="white" transform="translate(336 96)"/>
</clipPath>
<clipPath id="clip24_1166_8259">
<rect width="48" height="48" fill="white" transform="translate(384)"/>
</clipPath>
<clipPath id="clip25_1166_8259">
<rect width="48" height="48" fill="white" transform="translate(384 48)"/>
</clipPath>
<clipPath id="clip26_1166_8259">
<rect width="48" height="48" fill="white" transform="translate(384 96)"/>
</clipPath>
<clipPath id="clip27_1166_8259">
<rect width="48" height="48" fill="white" transform="translate(432)"/>
</clipPath>
<clipPath id="clip28_1166_8259">
<rect width="48" height="48" fill="white" transform="translate(432 48)"/>
</clipPath>
<clipPath id="clip29_1166_8259">
<rect width="48" height="48" fill="white" transform="translate(432 96)"/>
</clipPath>
<clipPath id="clip30_1166_8259">
<rect width="16" height="16" fill="white" transform="translate(110 52)"/>
</clipPath>
</defs>
</svg>
