<svg width="16" height="16" viewBox="0 0 16 16" fill="none" xmlns="http://www.w3.org/2000/svg">
<g id="Group 48103397">
<path id="Vector" d="M15.3522 6.53113H14.748V6.5H7.99805V9.5H12.2367C11.6183 11.2464 9.95667 12.5 7.99805 12.5C5.51292 12.5 3.49805 10.4851 3.49805 8C3.49805 5.51487 5.51292 3.5 7.99805 3.5C9.14517 3.5 10.1888 3.93275 10.9834 4.63962L13.1048 2.51825C11.7653 1.26987 9.97355 0.5 7.99805 0.5C3.85617 0.5 0.498047 3.85812 0.498047 8C0.498047 12.1419 3.85617 15.5 7.99805 15.5C12.1399 15.5 15.498 12.1419 15.498 8C15.498 7.49713 15.4463 7.00625 15.3522 6.53113Z" fill="#9CA3AF"/>
<path id="Vector_2" d="M1.36328 4.50912L3.82741 6.31625C4.49416 4.6655 6.10891 3.5 7.99853 3.5C9.14566 3.5 10.1893 3.93275 10.9839 4.63962L13.1053 2.51825C11.7658 1.26987 9.97403 0.5 7.99853 0.5C5.11778 0.5 2.61953 2.12637 1.36328 4.50912Z" fill="#9CA3AF"/>
<path id="Vector_3" d="M8.00109 15.4993C9.93834 15.4993 11.6986 14.7579 13.0295 13.5523L10.7082 11.588C9.93005 12.1802 8.97893 12.5003 8.00109 12.4993C6.05034 12.4993 4.39397 11.2554 3.76997 9.51953L1.32422 11.4039C2.56547 13.8328 5.08622 15.4993 8.00109 15.4993Z" fill="#9CA3AF"/>
<path id="Vector_4" d="M15.3541 6.53113H14.75V6.5H8V9.5H12.2386C11.9428 10.3312 11.41 11.0574 10.706 11.5891L10.7071 11.5884L13.0284 13.5526C12.8641 13.7019 15.5 11.75 15.5 8C15.5 7.49713 15.4482 7.00625 15.3541 6.53113Z" fill="#9CA3AF"/>
</g>
</svg>
