<svg width="19" height="18" viewBox="0 0 19 18" fill="none" xmlns="http://www.w3.org/2000/svg">
<g id="Logos/Colored/Instagram">
<g id="Group">
<path id="Subtract" fill-rule="evenodd" clip-rule="evenodd" d="M5.2168 1.125H13.584C15.6227 1.125 17.2754 2.7777 17.2754 4.81641V13.1836C17.2754 15.2223 15.6227 16.875 13.584 16.875H5.2168C3.17809 16.875 1.52539 15.2223 1.52539 13.1836V4.81641C1.52539 2.7777 3.17809 1.125 5.2168 1.125ZM6.86415 2.88482C7.52036 2.85498 7.73009 2.84766 9.40094 2.84766H9.39904C11.0704 2.84766 11.2794 2.85498 11.9356 2.88482C12.5906 2.91478 13.038 3.01851 13.4302 3.17072C13.8352 3.32766 14.1774 3.53789 14.5196 3.88008C14.8619 4.22209 15.0721 4.56533 15.2297 4.97003C15.381 5.3612 15.4848 5.80822 15.5156 6.4632C15.545 7.11947 15.5527 7.32915 15.5527 9.00006C15.5527 10.671 15.545 10.8802 15.5156 11.5364C15.4848 12.1911 15.381 12.6383 15.2297 13.0297C15.0721 13.4342 14.8619 13.7774 14.5196 14.1194C14.1778 14.4616 13.8351 14.6723 13.4305 14.8295C13.0391 14.9816 12.5915 15.0853 11.9365 15.1153C11.2803 15.1451 11.0712 15.1525 9.40021 15.1525C7.72941 15.1525 7.51987 15.1451 6.86359 15.1153C6.20874 15.0853 5.76159 14.9816 5.37011 14.8295C4.96572 14.6723 4.62248 14.4616 4.28059 14.1194C3.93852 13.7774 3.7283 13.4342 3.57104 13.0295C3.41902 12.6383 3.31535 12.1912 3.28521 11.5362C3.25543 10.88 3.24805 10.671 3.24805 9.00006C3.24805 7.32915 3.25574 7.11935 3.28508 6.46308C3.31455 5.80841 3.41834 5.36113 3.57092 4.96985C3.72854 4.56533 3.93877 4.22209 4.28103 3.88008C4.62297 3.53801 4.96621 3.32779 5.37091 3.17065C5.76208 3.01851 6.20917 2.91484 6.86415 2.88482ZM9.19592 3.95631C9.07151 3.95626 8.95621 3.95621 8.84902 3.95637V3.95483C7.70241 3.95612 7.48246 3.96381 6.91491 3.98947C6.31505 4.01703 5.98935 4.11701 5.77248 4.2016C5.48535 4.31333 5.28035 4.44665 5.06496 4.66198C4.84956 4.87731 4.71606 5.08237 4.60452 5.3695C4.52029 5.58637 4.42007 5.91195 4.39263 6.51181C4.36316 7.16039 4.35725 7.35412 4.35725 8.99711C4.35725 10.6401 4.36316 10.8349 4.39263 11.4835C4.41995 12.0833 4.52029 12.4089 4.60452 12.6255C4.7163 12.9128 4.84956 13.1173 5.0649 13.3327C5.28023 13.548 5.48535 13.6813 5.77242 13.7928C5.98947 13.877 6.31505 13.9772 6.91491 14.0049C7.56342 14.0344 7.75815 14.0408 9.40094 14.0408C11.0437 14.0408 11.2385 14.0344 11.887 14.0049C12.4869 13.9775 12.8127 13.8775 13.0294 13.7929C13.3166 13.6814 13.521 13.5481 13.7364 13.3328C13.9517 13.1176 14.0853 12.9131 14.1968 12.626C14.281 12.4094 14.3812 12.0838 14.4086 11.4839C14.4381 10.8354 14.4445 10.6406 14.4445 8.99864C14.4445 7.35671 14.4381 7.16192 14.4086 6.51334C14.3813 5.91349 14.281 5.58791 14.1968 5.37135C14.085 5.08422 13.9517 4.87916 13.7364 4.66383C13.5212 4.44843 13.3165 4.31511 13.0294 4.20363C12.8125 4.11941 12.4869 4.01919 11.887 3.99175C11.2383 3.96228 11.0437 3.95637 9.40094 3.95637C9.32996 3.95637 9.26167 3.95634 9.19592 3.95631ZM11.9468 5.71594C11.9468 5.30829 12.2775 4.9779 12.6851 4.9779V4.97766C13.0927 4.97766 13.4233 5.30835 13.4233 5.71594C13.4233 6.12353 13.0927 6.45422 12.6851 6.45422C12.2775 6.45422 11.9468 6.12353 11.9468 5.71594ZM6.24147 9.00006C6.24147 7.25524 7.65607 5.84059 9.40082 5.84052C11.1457 5.84052 12.56 7.25526 12.56 9.00006C12.56 10.7449 11.1458 12.1589 9.40094 12.1589C7.65614 12.1589 6.24147 10.7449 6.24147 9.00006ZM11.4518 9.00006C11.4518 7.86735 10.5335 6.94924 9.40094 6.94924C8.2683 6.94924 7.35018 7.86735 7.35018 9.00006C7.35018 10.1326 8.26836 11.0509 9.40094 11.0509C10.5335 11.0509 11.4518 10.1326 11.4518 9.00006Z" fill="#9CA3AF"/>
</g>
</g>
</svg>
