<svg width="19" height="18" viewBox="0 0 19 18" fill="none" xmlns="http://www.w3.org/2000/svg">
<g id="Logos/Colored/LinkedIn">
<g id="Group 48103399">
<path id="Subtract" fill-rule="evenodd" clip-rule="evenodd" d="M2.88649 1.12506H16.3127C16.6165 1.12263 16.9089 1.2402 17.1265 1.4522C17.3441 1.66421 17.4692 1.95352 17.4746 2.25725V15.7377C17.4705 16.0423 17.346 16.333 17.1283 16.5461C16.9106 16.7592 16.6174 16.8775 16.3127 16.8751H2.88649C2.5823 16.8782 2.28927 16.7606 2.07152 16.5482C1.85377 16.3358 1.72903 16.0458 1.72461 15.7416V2.26113C1.72835 1.9565 1.85279 1.6658 2.07062 1.45282C2.28844 1.23983 2.58186 1.12196 2.88649 1.12506ZM6.39497 7.0287H4.057V14.5513H6.39497V7.0287ZM5.97985 3.51339C5.75691 3.36438 5.49478 3.28485 5.22663 3.28485C4.86734 3.28485 4.52275 3.42749 4.26858 3.68142C4.0144 3.93535 3.87144 4.27981 3.87109 4.63909C3.87084 4.90725 3.95012 5.16945 4.09892 5.39254C4.24771 5.61562 4.45932 5.78957 4.70699 5.89236C4.95466 5.99516 5.22725 6.02219 5.49029 5.97003C5.75332 5.91787 5.99497 5.78887 6.18468 5.59935C6.37438 5.40982 6.50361 5.16829 6.55602 4.90531C6.60843 4.64233 6.58166 4.36971 6.4791 4.12194C6.37654 3.87418 6.2028 3.66239 5.97985 3.51339ZM10.1027 7.0287H7.86152V14.5513H10.1956V10.8345C10.1956 9.84821 10.3996 8.89805 11.5989 8.89805C12.7982 8.89805 12.8137 10.0199 12.8137 10.8913V14.5513H15.1517V10.4201C15.1517 8.39973 14.7128 6.84151 12.3451 6.84668C11.2078 6.84668 10.4461 7.47022 10.1337 8.06149H10.1027V7.0287Z" fill="#9CA3AF"/>
</g>
</g>
</svg>
