<svg width="19" height="18" viewBox="0 0 19 18" fill="none" xmlns="http://www.w3.org/2000/svg">
<g id="Logos/Colored/Pinterest">
<path id="Vector" d="M1.3252 8.99991C1.3252 12.2245 3.26428 14.9947 6.03904 16.2127C6.01689 15.6628 6.0351 15.0026 6.17611 14.4043C6.32752 13.7651 7.1894 10.1133 7.1894 10.1133C7.1894 10.1133 6.93783 9.61051 6.93783 8.86739C6.93783 7.70038 7.61422 6.8288 8.45659 6.8288C9.17291 6.8288 9.51898 7.36681 9.51898 8.01107C9.51898 8.73112 9.05971 9.80818 8.82352 10.8058C8.62621 11.6411 9.24237 12.3225 10.0665 12.3225C11.5585 12.3225 12.5635 10.4061 12.5635 8.13559C12.5635 6.40966 11.401 5.11782 9.2866 5.11782C6.89778 5.11782 5.4096 6.89925 5.4096 8.88911C5.4096 9.5752 5.61189 10.059 5.92873 10.4337C6.07442 10.6057 6.09466 10.675 6.04193 10.8726C6.00416 11.0175 5.91741 11.3663 5.88148 11.5045C5.82906 11.704 5.66744 11.7753 5.48718 11.7016C4.3869 11.2525 3.87447 10.0476 3.87447 8.6931C3.87447 6.45611 5.76114 3.77376 9.50274 3.77376C12.5094 3.77376 14.4883 5.94941 14.4883 8.28484C14.4883 11.374 12.7708 13.6819 10.2391 13.6819C9.38892 13.6819 8.58918 13.2223 8.31521 12.7003C8.31521 12.7003 7.85804 14.5147 7.7612 14.8651C7.59422 15.4722 7.26741 16.0791 6.96859 16.5521C7.69319 16.7663 8.44487 16.8751 9.20047 16.875C13.5492 16.875 17.0752 13.3492 17.0752 8.99991C17.0752 4.65075 13.5492 1.125 9.20047 1.125C4.85134 1.125 1.3252 4.65075 1.3252 8.99991Z" fill="#9CA3AF"/>
</g>
</svg>
