<svg width="18" height="18" viewBox="0 0 18 18" fill="none" xmlns="http://www.w3.org/2000/svg">
<g id="Google" clip-path="url(#clip0_1154_6672)">
<path id="Vector" d="M17.7854 9.16765C17.7854 8.4302 17.7255 7.89205 17.596 7.33398H9.17505V10.6625H14.118C14.0184 11.4896 13.4802 12.7354 12.2843 13.5724L12.2675 13.6839L14.9301 15.7465L15.1146 15.7649C16.8087 14.2003 17.7854 11.8982 17.7854 9.16765Z" fill="#4285F4"/>
<path id="Vector_2" d="M9.17525 17.9374C11.5969 17.9374 13.6298 17.1401 15.1148 15.7649L12.2845 13.5724C11.5271 14.1006 10.5106 14.4693 9.17525 14.4693C6.80344 14.4693 4.79039 12.9047 4.0728 10.7422L3.96761 10.7511L1.19905 12.8937L1.16284 12.9944C2.63774 15.9243 5.66731 17.9374 9.17525 17.9374Z" fill="#34A853"/>
<path id="Vector_3" d="M4.07269 10.7421C3.88334 10.184 3.77376 9.58606 3.77376 8.96822C3.77376 8.35032 3.88334 7.7524 4.06273 7.19433L4.05771 7.07548L1.25445 4.89844L1.16273 4.94206C0.554856 6.15789 0.206055 7.52321 0.206055 8.96822C0.206055 10.4132 0.554856 11.7785 1.16273 12.9943L4.07269 10.7421Z" fill="#FBBC05"/>
<path id="Vector_4" d="M9.17525 3.46802C10.8594 3.46802 11.9955 4.19551 12.6433 4.80346L15.1745 2.33196C13.6199 0.886946 11.5969 0 9.17525 0C5.66731 0 2.63774 2.01305 1.16284 4.94292L4.06283 7.19519C4.79039 5.03265 6.80344 3.46802 9.17525 3.46802Z" fill="#EB4335"/>
</g>
<defs>
<clipPath id="clip0_1154_6672">
<rect width="17.5878" height="18" fill="white" transform="translate(0.206055)"/>
</clipPath>
</defs>
</svg>
