<svg width="18" height="18" viewBox="0 0 18 18" fill="none" xmlns="http://www.w3.org/2000/svg">
<g id="Logos/Instagram">
<path id="Vector" d="M9 1.125C6.86292 1.125 6.59419 1.13484 5.75452 1.17225C4.91484 1.21163 4.34292 1.34353 3.84188 1.53844C3.31607 1.73563 2.83992 2.04578 2.44702 2.44702C2.04578 2.83992 1.73563 3.31607 1.53844 3.84188C1.34353 4.34194 1.21064 4.91484 1.17225 5.75156C1.13484 6.5932 1.125 6.86095 1.125 9.00099C1.125 11.139 1.13484 11.4068 1.17225 12.2465C1.21163 13.0852 1.34353 13.6571 1.53844 14.1581C1.74023 14.6759 2.00897 15.1149 2.44702 15.553C2.88408 15.991 3.32311 16.2607 3.84089 16.4616C4.34292 16.6565 4.91386 16.7894 5.75255 16.8278C6.5932 16.8652 6.86095 16.875 9 16.875C11.139 16.875 11.4058 16.8652 12.2465 16.8278C13.0842 16.7884 13.6581 16.6565 14.1591 16.4616C14.6846 16.2642 15.1604 15.9541 15.553 15.553C15.991 15.1149 16.2598 14.6759 16.4616 14.1581C16.6555 13.6571 16.7884 13.0852 16.8278 12.2465C16.8652 11.4068 16.875 11.139 16.875 9C16.875 6.86095 16.8652 6.5932 16.8278 5.75255C16.7884 4.91484 16.6555 4.34194 16.4616 3.84188C16.2644 3.31607 15.9542 2.83992 15.553 2.44702C15.1601 2.04578 14.6839 1.73563 14.1581 1.53844C13.6561 1.34353 13.0832 1.21064 12.2455 1.17225C11.4048 1.13484 11.1381 1.125 8.99803 1.125H9ZM8.2942 2.54447H9.00099C11.1036 2.54447 11.3527 2.55136 12.1825 2.58975C12.9503 2.6242 13.3677 2.75316 13.6453 2.86045C14.0124 3.00319 14.2753 3.17447 14.5509 3.45009C14.8265 3.72572 14.9968 3.98756 15.1395 4.35572C15.2478 4.63233 15.3758 5.0497 15.4102 5.81752C15.4486 6.64734 15.4565 6.89639 15.4565 8.99803C15.4565 11.0997 15.4486 11.3497 15.4102 12.1795C15.3758 12.9473 15.2468 13.3637 15.1395 13.6413C15.0124 13.9828 14.811 14.2918 14.5499 14.546C14.2743 14.8216 14.0124 14.9919 13.6443 15.1346C13.3687 15.2429 12.9513 15.3709 12.1825 15.4063C11.3527 15.4437 11.1036 15.4526 9.00099 15.4526C6.89836 15.4526 6.64833 15.4437 5.8185 15.4063C5.05069 15.3709 4.6343 15.2429 4.3567 15.1346C4.01496 15.0079 3.70564 14.8068 3.45108 14.546C3.1895 14.2916 2.98776 13.9823 2.86045 13.6403C2.75316 13.3637 2.6242 12.9464 2.58975 12.1785C2.55234 11.3487 2.54447 11.0997 2.54447 8.99606C2.54447 6.89245 2.55234 6.64537 2.58975 5.81555C2.62519 5.04773 2.75316 4.63036 2.86144 4.35277C3.00417 3.98559 3.17545 3.72277 3.45108 3.44714C3.7267 3.17152 3.98855 3.00122 4.3567 2.85848C4.6343 2.7502 5.05069 2.62223 5.8185 2.5868C6.54497 2.55333 6.8265 2.54348 8.2942 2.5425V2.54447ZM13.2043 3.85172C13.0802 3.85172 12.9573 3.87616 12.8426 3.92365C12.728 3.97114 12.6238 4.04075 12.536 4.1285C12.4483 4.21625 12.3787 4.32043 12.3312 4.43508C12.2837 4.54974 12.2593 4.67262 12.2593 4.79672C12.2593 4.92082 12.2837 5.0437 12.3312 5.15835C12.3787 5.27301 12.4483 5.37718 12.536 5.46493C12.6238 5.55269 12.728 5.62229 12.8426 5.66979C12.9573 5.71728 13.0802 5.74172 13.2043 5.74172C13.4549 5.74172 13.6953 5.64216 13.8725 5.46493C14.0497 5.28771 14.1493 5.04735 14.1493 4.79672C14.1493 4.54609 14.0497 4.30572 13.8725 4.1285C13.6953 3.95128 13.4549 3.85172 13.2043 3.85172ZM9.00099 4.95619C8.46457 4.94782 7.93185 5.04624 7.43384 5.24573C6.93583 5.44522 6.48248 5.74179 6.10018 6.11817C5.71788 6.49455 5.41428 6.94321 5.20705 7.43805C4.99981 7.93289 4.89309 8.46401 4.89309 9.00049C4.89309 9.53697 4.99981 10.0681 5.20705 10.5629C5.41428 11.0578 5.71788 11.5064 6.10018 11.8828C6.48248 12.2592 6.93583 12.5558 7.43384 12.7553C7.93185 12.9547 8.46457 13.0532 9.00099 13.0448C10.0627 13.0282 11.0753 12.5949 11.8202 11.8382C12.5652 11.0815 12.9827 10.0623 12.9827 9.00049C12.9827 7.93867 12.5652 6.91944 11.8202 6.16279C11.0753 5.40613 10.0627 4.97275 9.00099 4.95619ZM9.00099 6.37467C9.34575 6.37467 9.68713 6.44258 10.0057 6.57451C10.3242 6.70645 10.6136 6.89983 10.8574 7.14361C11.1012 7.3874 11.2945 7.67681 11.4265 7.99533C11.5584 8.31385 11.6263 8.65524 11.6263 9C11.6263 9.34476 11.5584 9.68615 11.4265 10.0047C11.2945 10.3232 11.1012 10.6126 10.8574 10.8564C10.6136 11.1002 10.3242 11.2936 10.0057 11.4255C9.68713 11.5574 9.34575 11.6253 9.00099 11.6253C8.3047 11.6253 7.63694 11.3487 7.1446 10.8564C6.65225 10.364 6.37566 9.69628 6.37566 9C6.37566 8.30372 6.65225 7.63596 7.1446 7.14361C7.63694 6.65127 8.3047 6.37467 9.00099 6.37467Z" fill="url(#paint0_linear_1154_6661)"/>
</g>
<defs>
<linearGradient id="paint0_linear_1154_6661" x1="1.125" y1="1.125" x2="16.875" y2="16.875" gradientUnits="userSpaceOnUse">
<stop offset="0.095396" stop-color="#7638FA"/>
<stop offset="0.311984" stop-color="#D300C5"/>
<stop offset="0.455678" stop-color="#FF0069"/>
<stop offset="0.7336" stop-color="#FF7A00"/>
<stop offset="0.91812" stop-color="#FFD600"/>
</linearGradient>
</defs>
</svg>
