<svg width="18" height="18" viewBox="0 0 18 18" fill="none" xmlns="http://www.w3.org/2000/svg">
<g id="Logos/LinkedIn">
<path id="Vector" fill-rule="evenodd" clip-rule="evenodd" d="M6.97534 6.61309H9.90011V8.06996C10.3214 7.23206 11.4019 6.47921 13.0249 6.47921C16.1363 6.47921 16.875 8.14714 16.875 11.2074V16.875H13.725V11.9043C13.725 10.1616 13.3037 9.17876 12.2311 9.17876C10.7435 9.17876 10.1253 10.238 10.1253 11.9035V16.875H6.97534V6.61309ZM1.57387 16.7411H4.72388V6.47921H1.57387V16.7411ZM5.17511 3.13313C5.17523 3.39715 5.12287 3.65857 5.02107 3.90219C4.91927 4.1458 4.77006 4.36675 4.58212 4.5522C4.39363 4.73972 4.17003 4.88826 3.92411 4.98933C3.67818 5.0904 3.41476 5.14202 3.14888 5.14125C2.61306 5.14005 2.09907 4.92885 1.7172 4.55299C1.53001 4.36686 1.38136 4.14565 1.27974 3.90202C1.17812 3.65838 1.12554 3.3971 1.125 3.13313C1.125 2.59999 1.33763 2.08969 1.71799 1.71326C2.0989 1.33596 2.61351 1.12451 3.14966 1.125C3.68674 1.125 4.20176 1.33684 4.58212 1.71326C4.96249 2.08969 5.17511 2.59999 5.17511 3.13313Z" fill="#0A66C2"/>
</g>
</svg>
