<svg width="18" height="18" viewBox="0 0 18 18" fill="none" xmlns="http://www.w3.org/2000/svg">
<g id="Logos/Threads">
<path id="Vector" d="M12.7549 8.42512C12.6868 8.39252 12.6182 8.36124 12.5489 8.33128C12.428 6.09084 11.2086 4.80853 9.16084 4.79541H9.13338C7.90878 4.79541 6.89013 5.32041 6.26312 6.27525L7.389 7.05028C7.85713 6.33694 8.59202 6.18534 9.13403 6.18534H9.15234C9.82642 6.18928 10.3357 6.38616 10.6646 6.76941C10.9046 7.04897 11.0648 7.4355 11.1439 7.92244C10.5043 7.81834 9.85513 7.78686 9.20857 7.82859C7.26216 7.94147 6.0101 9.08137 6.09444 10.6649C6.13694 11.4675 6.53577 12.1592 7.21704 12.61C7.7924 12.992 8.53448 13.1783 9.30533 13.1363C10.324 13.0806 11.1229 12.6901 11.68 11.9774C12.103 11.436 12.3704 10.7345 12.4888 9.8505C12.9739 10.1445 13.3335 10.531 13.5323 10.9957C13.8696 11.7864 13.8892 13.0852 12.834 14.1437C11.9088 15.0716 10.7967 15.4726 9.11638 15.4851C7.25235 15.4719 5.84207 14.8715 4.92542 13.702C4.06696 12.6061 3.62367 11.0245 3.60732 9C3.62367 6.97547 4.06696 5.39325 4.92542 4.29797C5.84207 3.12853 7.2517 2.52872 9.11638 2.51494C10.9935 2.52806 12.428 3.13181 13.3799 4.3065C13.8467 4.88334 14.1985 5.60784 14.4306 6.45244L15.75 6.09937C15.4689 5.05922 15.0262 4.16344 14.4247 3.41991C13.2047 1.9125 11.4198 1.14075 9.12096 1.125H9.1118C6.81691 1.14075 5.05291 1.91578 3.86754 3.42844C2.81228 4.77375 2.26831 6.64669 2.25 8.99475V9.00525C2.26831 11.3533 2.81228 13.2256 3.86754 14.5716C5.05291 16.0842 6.81691 16.8593 9.11115 16.875H9.12096C11.1609 16.8606 12.5986 16.3251 13.7827 15.1366C15.3329 13.5826 15.2864 11.6348 14.7752 10.4392C14.409 9.58144 13.7101 8.88581 12.7549 8.42512ZM9.23276 11.7477C8.37953 11.7963 7.49361 11.4117 7.44915 10.5888C7.41646 9.97847 7.88197 9.29663 9.28506 9.21591C9.4459 9.20628 9.60369 9.20169 9.75843 9.20212C10.2684 9.20212 10.7444 9.25134 11.1779 9.3465C11.0164 11.373 10.0683 11.7018 9.23276 11.7477Z" fill="#030712"/>
</g>
</svg>
